<svg class="upf-icon upf-icon-bullet-list" id="Layer_1" data-name="Layer 1" xmlns="http://www.w3.org/2000/svg" viewBox="0 0 19 19"><defs><style>.cls-1{fill:#fff;}</style></defs><title>Artboard 1 copy 2</title><path class="cls-1" d="M4.73,4.06H18.05a.5.5,0,0,0,0-1H4.73a.5.5,0,0,0,0,1Z"/><circle class="cls-1" cx="0.95" cy="9.5" r="0.5"/><circle class="cls-1" cx="0.95" cy="3.56" r="0.5"/><path class="cls-1" d="M18.05,14.94H4.73a.5.5,0,0,0,0,1H18.05a.5.5,0,0,0,0-1Z"/><circle class="cls-1" cx="0.95" cy="15.44" r="0.5"/><path class="cls-1" d="M17.92,9H4.72a.57.57,0,0,0,0,1.12h13.2a.57.57,0,0,0,0-1.12Z"/></svg>
