<svg class="upf-icon upf-icon-cog" id="Layer_1" data-name="Layer 1" xmlns="http://www.w3.org/2000/svg" viewBox="0 0 19 19"><defs><style>.cls-1{fill:#fff;}</style></defs><title>Artboard 1 copy 6</title><path class="cls-1" d="M17.38,7.65c-.32,0-.68-.06-1-.08a.18.18,0,0,1-.15-.11,5.81,5.81,0,0,0-.51-1.25.18.18,0,0,1,0-.19l.69-.8a1,1,0,0,0-.08-1.44L15.23,2.68a1.08,1.08,0,0,0-1.44-.07L13,3.29a.19.19,0,0,1-.21,0,5.81,5.81,0,0,0-1.24-.51.17.17,0,0,1-.12-.13c0-.21,0-.42,0-.61s0-.29,0-.43a1.07,1.07,0,0,0-1.08-1H8.72a1.07,1.07,0,0,0-1.08,1c0,.32-.06.68-.07,1a.18.18,0,0,1-.11.15,5.82,5.82,0,0,0-1.25.51A.18.18,0,0,1,6,3.3l-.8-.69a1,1,0,0,0-1.44.08L2.68,3.77a1.07,1.07,0,0,0-.07,1.44L3.3,6a.18.18,0,0,1,0,.2,5.73,5.73,0,0,0-.51,1.24.18.18,0,0,1-.14.12l-.61,0-.44,0a1.07,1.07,0,0,0-1,1.08v1.54a1,1,0,0,0,1,1.09c.32,0,.68.06,1,.07a.18.18,0,0,1,.15.13,6.91,6.91,0,0,0,.52,1.24.18.18,0,0,1,0,.19l-.69.8a1,1,0,0,0,.08,1.44l1.09,1.09a1.07,1.07,0,0,0,1.44.07l.17-.15c.2-.17.42-.35.63-.54a.18.18,0,0,1,.19,0,5.81,5.81,0,0,0,1.24.51.17.17,0,0,1,.12.13c0,.21,0,.41,0,.61s0,.3,0,.44a1.07,1.07,0,0,0,1.08,1h1.55a1.07,1.07,0,0,0,1.08-1c0-.32.06-.68.07-1a.18.18,0,0,1,.11-.15,5.82,5.82,0,0,0,1.25-.51.18.18,0,0,1,.19,0l.15.13.65.56a1,1,0,0,0,1.44-.08l1.09-1.09a1.07,1.07,0,0,0,.07-1.44L15.71,13a.18.18,0,0,1,0-.21,5.75,5.75,0,0,0,.51-1.24.18.18,0,0,1,.14-.12l.61,0,.44,0a1.07,1.07,0,0,0,1-1.08V8.72A1.07,1.07,0,0,0,17.38,7.65Zm-2.47,4.71A1.09,1.09,0,0,0,15,13.56c.24.27.47.55.66.79a.17.17,0,0,1,0,.23L14.6,15.67a.18.18,0,0,1-.22,0l-.1-.08-.7-.58a1,1,0,0,0-1.2-.13,5.67,5.67,0,0,1-1.07.44,1.07,1.07,0,0,0-.77,1c0,.21,0,.4,0,.59s0,.3,0,.43a.16.16,0,0,1-.16.15H8.74a.17.17,0,0,1-.16-.16c0-.31-.05-.65-.07-1a1.07,1.07,0,0,0-.77-1,6.24,6.24,0,0,1-1.08-.44,1.14,1.14,0,0,0-.5-.12,1.2,1.2,0,0,0-.71.26c-.27.24-.55.47-.79.66a.17.17,0,0,1-.23,0L3.33,14.58a.18.18,0,0,1,0-.22l.1-.11L4,13.56a1,1,0,0,0,.13-1.2,5.72,5.72,0,0,1-.44-1.07,1.07,1.07,0,0,0-1-.77l-.61,0-.42,0a.16.16,0,0,1-.15-.16l0-1.55a.17.17,0,0,1,.16-.17c.31,0,.65-.05,1-.07a1.07,1.07,0,0,0,1-.77,6.29,6.29,0,0,1,.44-1.07A1.09,1.09,0,0,0,4,5.44c-.24-.27-.47-.55-.66-.79a.17.17,0,0,1,0-.23L4.44,3.33a.18.18,0,0,1,.22,0l.11.09L5.46,4a1,1,0,0,0,1.2.13,5.67,5.67,0,0,1,1.07-.44,1.07,1.07,0,0,0,.77-1c0-.21,0-.4,0-.59s0-.3,0-.43a.16.16,0,0,1,.16-.15H10.3a.17.17,0,0,1,.16.16c0,.31.05.65.07,1a1.07,1.07,0,0,0,.77,1,6.25,6.25,0,0,1,1.07.44A1.09,1.09,0,0,0,13.58,4c.29-.25.54-.47.79-.66a.17.17,0,0,1,.23,0l1.09,1.09a.18.18,0,0,1,0,.22l-.1.11L15,5.44a1,1,0,0,0-.13,1.2,5.72,5.72,0,0,1,.44,1.07,1.07,1.07,0,0,0,1,.77l.6,0,.43,0a.16.16,0,0,1,.15.16v1.55a.17.17,0,0,1-.16.17c-.31,0-.65.05-1,.07a1.07,1.07,0,0,0-1,.77A6.33,6.33,0,0,1,14.92,12.36Z"/><path class="cls-1" d="M9.5,4.83A4.67,4.67,0,1,0,14.17,9.5,4.67,4.67,0,0,0,9.5,4.83Zm0,8.42A3.75,3.75,0,1,1,13.25,9.5,3.76,3.76,0,0,1,9.5,13.25Z"/></svg>
