<svg class='upf-icon upf-icon-envelope-open' width="24px" height="24px" viewBox="0 0 24 24" version="1.1" xmlns="http://www.w3.org/2000/svg" xmlns:xlink="http://www.w3.org/1999/xlink">
    <desc>Created with Sketch.</desc>
    <defs></defs>
    <g stroke="none" stroke-width="1" fill="none" fill-rule="evenodd">
        <g stroke="#212121" stroke-width="2">
            <g transform="translate(1.500000, -1.500000)">
                <path d="M1.88767166,10.3997833 C1.77328739,10.4641553 1.68950984,10.5234176 1.63636364,10.5735094 L1.63636364,23.3893969 C1.63636364,23.3586303 1.76934467,23.4604492 2.03928576,23.4604492 L18.9607142,23.4604492 C19.2296354,23.4604492 19.3636364,23.3584438 19.3636364,23.3893969 L19.3636364,10.4708356 C19.3636364,10.5016022 19.2306553,10.3997833 18.9607142,10.3997833 L1.88767166,10.3997833 Z" id="Rectangle-33"></path>
                <path d="M13.2315092,16.3628367 L16.5380602,13.0590206 L16.7894223,4.05485568 L5.78218086,5.0059748 C5.44281577,5.03529882 5.17382533,5.30465316 5.14496012,5.64405758 L4.2106089,16.6303963 L13.2315092,16.3628367 Z" id="Rectangle-34" transform="translate(10.500016, 10.342601) rotate(-315.000000) translate(-10.500016, -10.342601) "></path>
                <path d="M18.7272727,15.5602526 L11.7032946,22.5984282 C11.0400739,23.2629895 9.96369397,23.2640762 9.29913274,22.6008555 C9.29832282,22.6000473 9.29751372,22.5992382 9.29670543,22.5984282 L2.27272727,15.5602526" id="Triangle-5-Copy-2" stroke-linecap="round" stroke-linejoin="round" transform="translate(10.500000, 19.328907) rotate(-180.000000) translate(-10.500000, -19.328907) "></path>
            </g>
        </g>
    </g>
</svg>
