<svg class="upf-icon upf-icon-exit" id="Layer_1" data-name="Layer 1" xmlns="http://www.w3.org/2000/svg" viewBox="0 0 19 19"><defs><style>.cls-1{fill:#fff;}</style></defs><title>Artboard 1 copy 7</title><path class="cls-1" d="M18.05.28H9.88a.5.5,0,1,0,0,1h7.67V17.72H8.79a.5.5,0,0,0,0,1h9.26a.5.5,0,0,0,.5-.5V.78A.5.5,0,0,0,18.05.28Z"/><path class="cls-1" d="M2,10H14.24a.5.5,0,0,0,0-1H2.19L5.7,5.59A.5.5,0,1,0,5,4.87L.6,9.14h0a.5.5,0,0,0-.15.3h0a.5.5,0,0,0,0,.11.49.49,0,0,0,.09.24l0,0,4.17,4.8A.5.5,0,1,0,5.5,14Z"/></svg>
