<svg class='upf-icon upf-icon-file-search' width="28px" height="28px" viewBox="1326 18 28 28" version="1.1" xmlns="http://www.w3.org/2000/svg" xmlns:xlink="http://www.w3.org/1999/xlink">
  <desc>Created by the Upfluence's Design Squad with Sketch.</desc>
  <defs></defs>
  <g stroke="none" stroke-width="1" fill="none" fill-rule="evenodd" transform="translate(1326.000000, 18.000000)">
    <g id="Layer_1" fill="#4D84E1">
        <path d="M1.75,26.1290323 L17.5,26.1290323 C18.466,26.1290323 19.25,25.3486452 19.25,24.3870968 L19.25,22.0354839 C19.62275,21.8578065 19.971,21.6452903 20.29825,21.3996774 L25.669,26.7456774 C25.8405,26.9163871 26.0645,27 26.2885,27 C26.5125,27 26.7365,26.9146452 26.908,26.7456774 C27.24925,26.406 27.24925,25.8538065 26.908,25.514129 L21.53375,20.1646452 C22.288,19.1508387 22.75,17.9070968 22.75,16.5483871 C22.75,14.120129 21.31325,12.042 19.25,11.0612903 L19.25,1.74193548 C19.25,0.780387097 18.466,0 17.5,0 L1.75,0 C0.784,0 0,0.780387097 0,1.74193548 L0,24.3870968 C0,25.3486452 0.784,26.1290323 1.75,26.1290323 L1.75,26.1290323 Z M16.625,20.9032258 C14.2135,20.9032258 12.25,18.9487742 12.25,16.5483871 C12.25,14.148 14.2135,12.1935484 16.625,12.1935484 C19.0365,12.1935484 21,14.148 21,16.5483871 C21,18.9487742 19.0365,20.9032258 16.625,20.9032258 L16.625,20.9032258 Z M1.75,1.74193548 L17.5,1.74193548 L17.5,10.4516129 L4.62525,10.4516129 C4.004,10.4516129 3.5,10.8418065 3.5,11.3225806 C3.5,11.8033548 4.004,12.1935484 4.62525,12.1935484 L12.348,12.1935484 C11.40825,13.1063226 10.78525,14.3221935 10.5875,15.6774194 L4.375,15.6774194 C3.892,15.6774194 3.5,16.0676129 3.5,16.5483871 C3.5,17.0291613 3.892,17.4193548 4.375,17.4193548 L10.5875,17.4193548 C11.01625,20.3701935 13.5415,22.6451613 16.625,22.6451613 C16.92425,22.6451613 17.21125,22.598129 17.5,22.5580645 L17.5,24.3870968 L1.75,24.3870968 L1.75,1.74193548 L1.75,1.74193548 Z M4.375,6.96774194 L14.875,6.96774194 C15.358,6.96774194 15.75,6.57754839 15.75,6.09677419 C15.75,5.616 15.358,5.22580645 14.875,5.22580645 L4.375,5.22580645 C3.892,5.22580645 3.5,5.616 3.5,6.09677419 C3.5,6.57754839 3.892,6.96774194 4.375,6.96774194 L4.375,6.96774194 Z"></path>
    </g>
  </g>
</svg>
