<svg class="upf-icon upf-icon-hearbeat" id="Layer_1" data-name="Layer 1" xmlns="http://www.w3.org/2000/svg" viewBox="0 0 19 19"><defs><style>.cls-1{fill:#fff;}</style></defs><title>Artboard 1 copy 4</title><path class="cls-1" d="M12.42,13h-.1a.9.9,0,0,1-.69-.52L9.08,7.24,6.7,10.94a.93.93,0,0,1-.73.45A1,1,0,0,1,5.18,11L3.86,9.65a1,1,0,0,0-.62-.32H.95a.5.5,0,0,1,0-1H3.24A1.93,1.93,0,0,1,4.61,9L5.9,10.32,8.4,6.46A.83.83,0,0,1,9.15,6a.84.84,0,0,1,.7.51l2.6,5.31,2.2-2.57A2,2,0,0,1,16,8.65h2a.5.5,0,0,1,0,1H16a1,1,0,0,0-.61.28l-2.3,2.69A.91.91,0,0,1,12.42,13Z"/></svg>
