<svg class="upf-icon upf-icon-money" id="Layer_1" data-name="Layer 1" xmlns="http://www.w3.org/2000/svg" viewBox="0 0 19 19"><defs><style>.cls-1{fill:#fff;}</style></defs><title>Artboard 1 copy 5</title><path class="cls-1" d="M15.15,7.32a16.75,16.75,0,0,0-2.9-2.46l1.88-3.44A.5.5,0,0,0,14,.77,2.12,2.12,0,0,0,12.79.41a4.45,4.45,0,0,0-1.56.39,4.09,4.09,0,0,1-1.4.34h0a1.59,1.59,0,0,1-.48-.07A8.44,8.44,0,0,0,6.77.51a3.1,3.1,0,0,0-2,.72.5.5,0,0,0-.09.66l2,3A17,17,0,0,0,3.85,7.32,11.47,11.47,0,0,0,.45,15.2a3.21,3.21,0,0,0,1.11,2.42,3.92,3.92,0,0,0,2.62,1H14.91a3.9,3.9,0,0,0,2.53-1,3.2,3.2,0,0,0,1.1-2.41A11.45,11.45,0,0,0,15.15,7.32ZM5.77,1.74C6.58,1.33,7.52,1.52,9,2a2.58,2.58,0,0,0,.79.12h0a5.07,5.07,0,0,0,1.76-.41,2.8,2.8,0,0,1,1.4-.3L11.31,4.5H7.66Zm11,15.12a2.92,2.92,0,0,1-2,.72H4.19a2.93,2.93,0,0,1-2-.72,2.23,2.23,0,0,1-.78-1.67A10.51,10.51,0,0,1,4.58,8a16.12,16.12,0,0,1,3-2.5h3.91a15.81,15.81,0,0,1,3,2.5,10.49,10.49,0,0,1,3.13,7.2A2.22,2.22,0,0,1,16.78,16.86Z"/><path class="cls-1" d="M11.61,12.63a1.62,1.62,0,0,0-.44-.46,2.58,2.58,0,0,0-.85-.37l-.2-.05-.18,0V10.38a.55.55,0,0,1,.43.21.79.79,0,0,1,.19.51h1.06a1.71,1.71,0,0,0-.16-.67,1.49,1.49,0,0,0-.37-.47,1.68,1.68,0,0,0-.52-.3,2.68,2.68,0,0,0-.63-.15V8.93H9.49V9.5a2.49,2.49,0,0,0-.65.13,1.76,1.76,0,0,0-.55.31,1.5,1.5,0,0,0-.38.49,1.48,1.48,0,0,0-.15.67,1.36,1.36,0,0,0,.13.62,1.23,1.23,0,0,0,.34.42,1.78,1.78,0,0,0,.48.27l.55.18.14,0,.1,0v1.56a1,1,0,0,1-.58-.31.92.92,0,0,1-.22-.67H7.64a2,2,0,0,0,.55,1.34,2,2,0,0,0,1.31.52v.63h.44v-.63a2.33,2.33,0,0,0,.92-.22,2,2,0,0,0,.57-.43,1.44,1.44,0,0,0,.38-.9,3.91,3.91,0,0,0,0-.43A1.2,1.2,0,0,0,11.61,12.63Zm-2.11-1A1.23,1.23,0,0,1,9,11.38.48.48,0,0,1,8.82,11a.62.62,0,0,1,.06-.27A.57.57,0,0,1,9,10.53a.65.65,0,0,1,.22-.12.83.83,0,0,1,.25,0Zm1.17,2.2a.74.74,0,0,1-.19.22.9.9,0,0,1-.26.14,1.37,1.37,0,0,1-.28.06V12.78a1.8,1.8,0,0,1,.62.27.52.52,0,0,1,.18.44A.61.61,0,0,1,10.66,13.8Z"/></svg>
