<svg class="upf-icon upf-icon-speaker" id="Layer_1" data-name="Layer 1" xmlns="http://www.w3.org/2000/svg" viewBox="0 0 19 19"><defs><style>.cls-1{fill:#fff;}</style></defs><title>Artboard 1 copy</title><path class="cls-1" d="M13.44,2.79a.46.46,0,0,0-.49.07A10.08,10.08,0,0,1,6.3,5.38H3.36a3,3,0,0,0-2.95,3v.21a3,3,0,0,0,2.95,3H4.3v3.21a1.6,1.6,0,0,0,.45,1.1,1.54,1.54,0,0,0,2.63-1.11v-2a.47.47,0,1,0-.94,0v2a.61.61,0,0,1-.6.62.58.58,0,0,1-.42-.17.61.61,0,0,1-.18-.44V11.49H6.37A10.21,10.21,0,0,1,13,13.9a.49.49,0,0,0,.3.11.43.43,0,0,0,.19,0,.46.46,0,0,0,.28-.43V3.21A.46.46,0,0,0,13.44,2.79ZM2.89,10.51a2,2,0,0,1-1.54-2V8.34a2,2,0,0,1,1.54-2Zm9.89,2.08a11.26,11.26,0,0,0-6.42-2H3.83V6.32H6.3A11,11,0,0,0,12.79,4.2Z"/><path class="cls-1" d="M16,6.78a.5.5,0,0,0,.25-.07L18.19,5.6a.5.5,0,0,0-.5-.87L15.75,5.85a.5.5,0,0,0,.25.93Z"/><path class="cls-1" d="M18.19,11.06,16.25,9.94a.5.5,0,1,0-.5.87l1.93,1.12a.5.5,0,0,0,.5-.87Z"/><path class="cls-1" d="M18.09,7.82H15.85a.5.5,0,0,0,0,1h2.23a.5.5,0,0,0,0-1Z"/></svg>
