<svg class='upf-icon upf-icon-star' width="24px" height="24px" viewBox="0 0 24 24" version="1.1" xmlns="http://www.w3.org/2000/svg" xmlns:xlink="http://www.w3.org/1999/xlink">
    <desc>Created with Sketch.</desc>
    <defs></defs>
    <g stroke="none" stroke-width="1" fill="none" fill-rule="evenodd">
        <g stroke="#ECA351" stroke-width="2">
            <path d="M11.5337309,19.2088686 L6.74845268,21.7383902 C6.26018728,21.9964897 5.65513899,21.8099034 5.3970395,21.321638 C5.29354309,21.1258464 5.25796853,20.9012374 5.29589653,20.6830464 L6.22288229,15.3503113 C6.27952208,15.0244756 6.17140012,14.6917104 5.93405617,14.4613959 L2.04960585,10.6919911 C1.65325634,10.3073802 1.64374028,9.67428673 2.02835113,9.27793722 C2.18257786,9.11900336 2.38520054,9.01576195 2.60443293,8.98440888 L7.96261981,8.21811895 C8.29001059,8.17129784 8.57307757,7.96563763 8.71877641,7.66873902 L11.1033323,2.80959709 C11.3466402,2.31379501 11.9458072,2.10910806 12.4416093,2.35241598 C12.6404231,2.44998105 12.8012253,2.61078332 12.8987904,2.80959709 L15.2833462,7.66873902 C15.4290451,7.96563763 15.7121121,8.17129784 16.0395028,8.21811895 L21.3976897,8.98440888 C21.9444118,9.0625972 22.3242335,9.56918718 22.2460451,10.1159093 C22.2146921,10.3351416 22.1114507,10.5377643 21.9525168,10.6919911 L18.0680665,14.4613959 C17.8307225,14.6917104 17.7226006,15.0244756 17.7792404,15.3503113 L18.7062261,20.6830464 C18.800811,21.2271715 18.4363867,21.7449483 17.8922616,21.8395332 C17.6740705,21.8774612 17.4494616,21.8418866 17.25367,21.7383902 L12.4683918,19.2088686 C12.1760063,19.0543122 11.8261163,19.0543122 11.5337309,19.2088686 Z" id="Star"></path>
        </g>
    </g>
</svg>
