<?xml version="1.0" encoding="UTF-8"?>
<svg width="148px" height="148px" viewBox="0 0 148 148" version="1.1" xmlns="http://www.w3.org/2000/svg" xmlns:xlink="http://www.w3.org/1999/xlink">
    <!-- Generator: Sketch 48.1 (47250) - http://www.bohemiancoding.com/sketch -->
    <title>no-image</title>
    <desc>Created with Sketch.</desc>
    <defs></defs>
    <g id="Symbols" stroke="none" stroke-width="1" fill="none" fill-rule="evenodd">
        <g id="no-image">
            <rect id="Rectangle-3" fill="#F1F1F1" x="0" y="0" width="148" height="148"></rect>
            <path d="M108.998915,73.5002539 C108.998915,85.1500211 100.160709,92.229691 85.4345961,91.8698158 C80.168472,93.1246021 76.777215,100.293445 75.8826083,108.000508 L62.9393635,108.000508 C62.1367555,98.9494857 66.5114453,90.9749047 73.2051332,88.4653321 C70.7053104,87.3888911 68.20866,86.9430279 65.7976634,86.9430279 C59.9954098,86.9430279 53.4793743,90.7965595 47.5882945,98.5896104 L40,88.0162842 C46.6080341,79.9525306 53.6570267,75.0257428 62.9393635,75.0257428 C74.9911741,75.0257428 82.0433391,79.9525306 88.2897237,79.9525306 C93.5558478,79.9525306 97.3944081,77.8920059 97.3944081,73.5002539 C97.3944081,69.1116865 93.5558478,67.0479771 88.2897237,67.0479771 C82.0433391,67.0479771 74.9911741,71.9779497 62.9393635,71.9779497 C53.6570267,71.9779497 46.6080341,67.0479771 40,58.9842235 L47.5882945,48.4108973 C53.4793743,56.207133 59.9954098,60.0606645 65.7976634,60.0606645 C68.20866,60.0606645 70.7053104,59.6116166 73.2051332,58.5351756 C66.5114453,56.025603 62.1367555,48.051022 62.9393635,39 L75.8826083,39 C76.777215,46.7070631 80.168472,53.8759056 85.4345961,55.1306919 C100.160709,54.7740014 108.998915,61.8504866 108.998915,73.5002539 L108.998915,75.0257428" id="Page-1" fill="#DADADA"></path>
        </g>
    </g>
</svg>