<svg id="Calque_1" data-name="Calque 1" xmlns="http://www.w3.org/2000/svg" viewBox="0 0 2083 754"><defs><style>.cls-1{fill:#fff;}.cls-2{fill:#ff4331;}</style></defs><title>Plan de travail 1</title><path class="cls-1" d="M754.06,406.72c0,40.67-24.62,68.06-60.31,68.06-21.3,0-38.45-10.51-47-31l-1.11.28a125.8,125.8,0,0,1,2.49,26V526H614.63V342.82h33.2c0,10.79-.83,19.91-2.49,26.55l1.11.28c9.12-19.09,24.34-31,47-31C728.89,338.66,754.06,366.05,754.06,406.72Zm-107.06,0c0,22.14,14.94,37.07,36.79,37.07,21.58,0,34.86-14.1,34.86-37.07s-13.56-37.07-34.86-37.07C661.94,369.65,647,384.59,647,406.72Z"/><path class="cls-1" d="M846.75,305.74h-2.49c-16.87,0-24.9,5.81-24.9,23.52v5.81c-.28,3.32-.28,6.64-1.38,9.41l.55.55c2.49-1.94,6.09-2.21,11.9-2.21h16.32V373H830.43c-6.64,0-9.41-.28-11.9-1.94l-.55.56c1.38,4.15,1.38,9.68,1.38,15.49v83.55h-34V387.08c0-5.81,0-11.34,1.39-15.49l-.56-.56c-2.49,1.66-5.25,1.94-11.89,1.94H762.92V342.82h11.35c6.09,0,9.4.27,11.89,2.21l.56-.55c-1.11-2.77-1.11-6.09-1.39-9.14v-4.7c0-41.5,24.35-56.16,55.61-56.16h5.81Zm55.33,164.89H868.33V272.82h33.75Z"/><path class="cls-1" d="M1053.42,470.63H1020a106.92,106.92,0,0,1,3.87-29.05l-1.38-.28c-8.58,22.14-22.13,33.48-44.54,33.48-27.11,0-45.37-18.26-45.37-52.29V342.82h34.86v71.09c0,19.92,9.13,29.33,24.62,29.33,16.32,0,27.39-12.45,27.39-38.18V342.82h34Z"/><path class="cls-1" d="M1205.05,406.45v8h-79.13c-8.3,0-12.45-.56-16-2.77l-.56.83,1.11,3.05c3,19.08,15.77,29.32,36,29.32,14.67,0,27.12-5.26,37.91-15.21L1199.79,454c-15.21,13.83-32.37,20.75-53.4,20.75-42.05,0-69.71-26.28-69.71-67.78,0-41.78,26.83-68.34,66.12-68.34C1181.53,338.66,1205.05,363.84,1205.05,406.45Zm-95.17-12.73.55.55c2.49-1.66,8-2.49,13.83-2.49h30.16c9.4,0,13.55.28,15.77,2.22l.55-.56c-1.11-17.43-12.17-27.11-29-27.11C1124.26,366.33,1112.09,376.57,1109.88,393.72Z"/><path class="cls-1" d="M1352.51,388.46v82.17h-34V398.15c0-19.09-8.85-28.78-24.62-28.78-19.36,0-31.54,13-31.54,39.84v61.42h-33.75V342.82h33.75c0,14.11-.83,20.47-2.77,29l1.11.56c8.3-20.75,22.69-33.76,46.48-33.76C1336.19,338.66,1352.51,356.09,1352.51,388.46Z"/><path class="cls-1" d="M1375.21,406.72c0-40.39,28.77-68.06,70.54-68.06a82.08,82.08,0,0,1,44.82,12.73l-14.66,27.94a52.31,52.31,0,0,0-29.6-8.85c-21.3,0-36.24,14.94-36.24,36.24S1425,443,1446.31,443a52.23,52.23,0,0,0,29.6-8.85l14.66,27.94a82,82,0,0,1-44.82,12.73C1404,474.78,1375.21,447.11,1375.21,406.72Z"/><path class="cls-1" d="M1624.21,406.45v8h-79.13c-8.3,0-12.45-.56-16-2.77l-.56.83,1.11,3.05c3,19.08,15.77,29.32,36,29.32,14.67,0,27.11-5.26,37.91-15.21L1619,454c-15.22,13.83-32.37,20.75-53.4,20.75-42,0-69.71-26.28-69.71-67.78,0-41.78,26.83-68.34,66.12-68.34C1600.69,338.66,1624.21,363.84,1624.21,406.45ZM1529,393.72l.55.55c2.49-1.66,8-2.49,13.83-2.49h30.16c9.4,0,13.56.28,15.77,2.22l.55-.56c-1.11-17.43-12.17-27.11-29.05-27.11C1543.42,366.33,1531.25,376.57,1529,393.72Z"/><rect class="cls-1" x="461.96" y="342.88" width="34.95" height="82.27"/><path class="cls-1" d="M546.79,341.29v88.52c0,.31-.13.56-.15.86-.77,2.52-2.13,12.74-33.17,11.4V477h1.86c32,0,66.54-8.18,66.54-47.2V341.29Z"/><rect class="cls-2" x="461.96" y="442.07" width="34.95" height="34.95"/></svg>