<svg xmlns="http://www.w3.org/2000/svg" viewBox="0 0 1745.49 380.17"><defs><style>.cls-1{fill:#ff4331;}.cls-2{fill:#0d0de6;}</style></defs><title>Fichier 1logo</title><g id="Calque_2" data-name="Calque 2"><g id="Calque_1-2" data-name="Calque 1"><rect class="cls-1" y="254.18" width="52.48" height="52.48"/></g><g id="Calque_2-2" data-name="Calque 2"><path class="cls-2" d="M438.68,201.1c0,61.07-37,102.2-90.57,102.2-32,0-57.75-15.78-70.64-46.53l-1.66.42a188.34,188.34,0,0,1,3.74,39.05v83.93H229.28v-275h49.86c0,16.2-1.25,29.91-3.74,39.88l1.66.42c13.71-28.67,36.57-46.54,70.63-46.54C400.88,98.88,438.68,140,438.68,201.1Zm-160.79,0c0,33.24,22.44,55.67,55.26,55.67,32.41,0,52.35-21.19,52.35-55.67s-20.36-55.68-52.35-55.68C300.33,145.42,277.89,167.86,277.89,201.1Z"/><path class="cls-2" d="M577.89,49.44h-3.74c-25.34,0-37.39,8.73-37.39,35.32v8.72c-.42,5-.42,10-2.08,14.13l.83.83c3.74-2.91,9.14-3.32,17.86-3.32h24.52V150.4H553.37c-10,0-14.12-.41-17.86-2.9l-.83.83c2.08,6.23,2.08,14.54,2.08,23.27V297.07H485.65V171.6c0-8.73,0-17,2.08-23.27l-.83-.83c-3.74,2.49-7.9,2.9-17.87,2.9H452V105.12h17c9.15,0,14.13.41,17.87,3.32l.83-.83c-1.66-4.15-1.66-9.14-2.08-13.71V86.84c0-62.33,36.56-84.35,83.52-84.35h8.72ZM661,297.07H610.3V0H661Z"/><path class="cls-2" d="M888.28,297.07H838a160.45,160.45,0,0,1,5.82-43.62l-2.08-.42c-12.88,33.24-33.24,50.27-66.89,50.27-40.72,0-68.14-27.42-68.14-78.52V105.12h52.35V211.9c0,29.91,13.71,44,37,44,24.51,0,41.13-18.7,41.13-57.34V105.12h51.11Z"/><path class="cls-2" d="M1116,200.68v12H997.15c-12.46,0-18.69-.83-24.09-4.16l-.83,1.25,1.66,4.57c4.57,28.67,23.68,44,54,44,22,0,40.72-7.89,56.92-22.85l23.27,36.56c-22.85,20.78-48.61,31.16-80.19,31.16-63.15,0-104.7-39.47-104.7-101.79,0-62.74,40.3-102.63,99.3-102.63C1080.67,98.88,1116,136.69,1116,200.68ZM973.06,181.57l.83.83c3.74-2.49,12.05-3.74,20.77-3.74H1040c14.13,0,20.36.41,23.68,3.32l.83-.83c-1.66-26.17-18.28-40.72-43.62-40.72C994.66,140.43,976.38,155.81,973.06,181.57Z"/><path class="cls-2" d="M1337.45,173.67v123.4h-51.1V188.21c0-28.66-13.3-43.21-37-43.21-29.08,0-47.36,19.53-47.36,59.83v92.24h-50.7V105.12H1202c0,21.19-1.25,30.74-4.16,43.62l1.66.84c12.47-31.17,34.07-50.7,69.8-50.7C1312.94,98.88,1337.45,125.06,1337.45,173.67Z"/><path class="cls-2" d="M1371.54,201.1c0-60.67,43.21-102.22,106-102.22A123.21,123.21,0,0,1,1544.8,118l-22,42a78.49,78.49,0,0,0-44.46-13.29c-32,0-54.43,22.43-54.43,54.43s22.44,54.42,54.43,54.42a78.49,78.49,0,0,0,44.46-13.29l22,42c-20.78,12.88-42.38,19.11-67.31,19.11C1414.75,303.3,1371.54,261.76,1371.54,201.1Z"/><path class="cls-2" d="M1745.49,200.68v12H1626.66c-12.46,0-18.69-.83-24.1-4.16l-.83,1.25,1.67,4.57c4.57,28.67,23.67,44,54,44,22,0,40.71-7.89,56.92-22.85l23.27,36.56c-22.86,20.78-48.62,31.16-80.19,31.16-63.16,0-104.71-39.47-104.71-101.79,0-62.74,40.31-102.63,99.3-102.63C1710.17,98.88,1745.49,136.69,1745.49,200.68Zm-142.93-19.11.84.83c3.73-2.49,12-3.74,20.77-3.74h45.29c14.12,0,20.36.41,23.68,3.32l.83-.83c-1.66-26.17-18.28-40.72-43.63-40.72C1624.17,140.43,1605.89,155.81,1602.56,181.57Z"/><rect class="cls-2" y="105.22" width="52.48" height="123.56"/><path class="cls-2" d="M127.4,102.83V235.77c0,.46-.19.85-.23,1.29-1.16,3.79-3.19,19.13-49.81,17.12v52.48h2.79c48,0,99.94-12.3,99.94-70.89V102.83Z"/></g></g></svg>