<?xml version="1.0" encoding="UTF-8"?>
<svg width="18px" height="12px" viewBox="0 0 18 12" version="1.1" xmlns="http://www.w3.org/2000/svg" xmlns:xlink="http://www.w3.org/1999/xlink">
    <!-- Generator: Sketch 52.2 (67145) - http://www.bohemiancoding.com/sketch -->
    <title>Shape</title>
    <desc>Created with Sketch.</desc>
    <g id="Symbols" stroke="none" stroke-width="1" fill="none" fill-rule="evenodd">
        <path d="M13.7083453,1.65174129 C13.3625859,1.5920398 13.0168264,1.55223881 12.671067,1.55223881 C12.5083567,1.55223881 12.3456463,1.55223881 12.1625972,1.5721393 C11.0439637,0.577114428 9.57957071,0 8.03382257,0 C5.04402025,0 2.56268771,2.08955224 2.01354034,4.85572139 C0.813551653,5.51243781 0,6.76616915 0,8.17910448 C0.0203387913,10.2885572 1.76947484,12 3.90504793,12 L12.7727609,12 C15.6608693,12 17.9998303,9.69154229 17.9998303,6.88557214 C18.0201691,4.33830846 16.2100167,2.14925373 13.7083453,1.65174129 Z M12.7727609,10.2089552 L3.90504793,10.2089552 C2.76607562,10.2089552 1.85083001,9.31343284 1.85083001,8.19900498 C1.85083001,7.14427861 2.68472045,6.26865672 3.76267639,6.18905473 C3.76267639,6.12935323 3.76267639,6.06965174 3.76267639,6.00995025 C3.76267639,3.68159204 5.69486157,1.81094527 8.05416136,1.81094527 C9.47787675,1.81094527 10.7592206,2.48756219 11.5320947,3.54228856 C11.8981929,3.42288557 12.28463,3.34328358 12.6914058,3.34328358 C12.9151325,3.34328358 13.1388592,3.36318408 13.3625859,3.40298507 C15.0303668,3.72139303 16.1896779,5.21393035 16.1896779,6.86567164 C16.1896779,8.71641791 14.6642685,10.2089552 12.7727609,10.2089552 Z" id="Shape" fill="#FFFFFF" fill-rule="nonzero"></path>
    </g>
</svg>