<?xml version="1.0" encoding="UTF-8"?>
<svg width="18px" height="18px" viewBox="0 0 18 18" version="1.1" xmlns="http://www.w3.org/2000/svg" xmlns:xlink="http://www.w3.org/1999/xlink">
    <!-- Generator: Sketch 48.1 (47250) - http://www.bohemiancoding.com/sketch -->
    <title>cog</title>
    <desc>Created with Sketch.</desc>
    <defs></defs>
    <g id="Symbols" stroke="none" stroke-width="1" fill="none" fill-rule="evenodd">
        <path d="M8.99865803,18.0003834 C8.48775189,18.0003834 8.12235334,17.9480467 7.66359221,17.8577515 C7.40727645,17.8082904 7.20578963,17.6004771 7.16380522,17.3412857 L6.80089891,15.0936821 C6.61072296,15.0252418 6.42495633,14.9483662 6.24455758,14.8638223 L4.39935245,16.1954373 C4.1911558,16.3461211 3.89419759,16.3520641 3.67909939,16.207515 C2.85513143,15.6481063 2.34422528,15.1370085 1.79210156,14.3207089 C1.6433349,14.1061858 1.64640225,13.8144038 1.80264559,13.5987305 L3.13502748,11.753717 C3.04952499,11.5712095 2.97245772,11.3852511 2.90478422,11.1975674 L0.657947429,10.8350445 C0.398756018,10.7930601 0.190942785,10.5919567 0.140714864,10.3344907 C0.0517615984,9.8805223 0,9.51627402 0,9.00019171 C0,8.48391769 0.0517615984,8.11986112 0.140906574,7.6653176 C0.190367656,7.40785157 0.398372598,7.20559792 0.658330848,7.16380522 L2.90516764,6.80109061 C2.97341627,6.61187322 3.05010012,6.42649001 3.13483577,6.24589954 L1.80207046,4.39935245 C1.64812764,4.18636306 1.6433349,3.8964981 1.78999276,3.67852426 C2.34575896,2.85992417 2.8566651,2.34882631 3.67679888,1.79114302 C3.89573127,1.64391002 4.19038896,1.65061986 4.40011929,1.8028373 L6.24628296,3.13521919 C6.42764027,3.05029182 6.61302347,2.97360798 6.80089891,2.90612619 L7.16361351,0.659481106 C7.20559792,0.399906275 7.40650961,0.191517914 7.6634005,0.140906574 C8.13385592,0.0494610829 8.48545137,0 8.99846632,0 C9.51205641,0 9.86365186,0.0494610829 10.3325736,0.140714864 C10.5908065,0.190559366 10.7928684,0.398947727 10.8350445,0.659481106 L11.1975674,2.90497593 C11.3867848,2.97303285 11.5725514,3.04990841 11.7529502,3.13483577 L13.5989222,1.80226217 C13.8111447,1.64927789 14.1098283,1.64621054 14.3243514,1.79459379 C15.1418012,2.34901802 15.6527074,2.85992417 16.2063648,3.67756571 C16.3541729,3.89803178 16.3495718,4.18751331 16.1962041,4.39973587 L14.8634388,6.24628296 C14.9489413,6.42898223 15.0258169,6.61436544 15.0927236,6.80128232 L17.3401355,7.16380522 C17.6002854,7.20559792 17.8086738,7.40804328 17.8579432,7.66780982 C17.9520726,8.15360201 18,8.49350317 18,9.00019171 C18,9.51301495 17.9497721,9.8646104 17.857368,10.3337239 C17.8086738,10.5906147 17.6006689,10.7932518 17.3401355,10.8352362 L15.0927236,11.1977591 C15.0248583,11.3873599 14.9481745,11.5729349 14.8638223,11.7531419 L16.1962041,13.599689 C16.3518724,13.8142121 16.3551314,14.1058024 16.2040642,14.3241597 C15.6538576,15.1375836 15.1427598,15.6486815 14.3210923,16.2063648 C14.2198696,16.2769139 14.0960252,16.3156392 13.9673881,16.3156392 C13.8345333,16.3156392 13.7072381,16.2744217 13.5991139,16.1965876 L11.7527585,14.864014 C11.5725514,14.9485579 11.3869765,15.0256252 11.1975674,15.0936821 L10.8348528,17.3407106 C10.7926767,17.6010523 10.5900396,17.8088655 10.3304648,17.8581349 C9.8625016,17.9503472 9.51033102,18.0003834 8.99865803,18.0003834 Z M7.96936906,17.0613897 C8.324607,17.1273378 8.60373621,17.1606953 8.99884974,17.1606953 C9.39377157,17.1606953 9.67347591,17.1271461 10.0300558,17.0610063 L10.450475,14.4545222 L10.6975887,14.3766881 C11.0114174,14.2777659 11.3148937,14.1521961 11.5991991,14.0036212 L11.8290589,13.8834192 L13.970072,15.4287905 C14.5871853,14.9947599 15.0007029,14.5812423 15.4287905,13.9706471 L13.8832275,11.8292506 L14.0034295,11.5993908 C14.1518127,11.3152771 14.2769991,11.0123759 14.3749627,10.698739 L14.4524134,10.4508584 L17.0608146,10.0302475 C17.1269544,9.67405104 17.1603118,9.39530524 17.1603118,9.00057513 C17.1603118,8.60872066 17.1281046,8.33687641 17.0604311,7.96956077 L14.45203,7.54875815 L14.374771,7.30068589 C14.2798747,6.99586759 14.1546884,6.69258297 14.0026626,6.39888382 L13.8838027,6.16959911 L15.4287905,4.02896945 C14.9997444,3.41703234 14.5856516,3.00274784 13.9702637,2.57063435 L11.8290589,4.11619733 L11.5991991,3.99618711 C11.3137434,3.84703702 11.0102671,3.72127551 10.6975887,3.62292847 L10.4506667,3.54509436 L10.0296724,0.93784348 C9.67424275,0.872662208 9.39473012,0.839688152 8.99865803,0.839688152 C8.60335279,0.839688152 8.32384016,0.872662208 7.96936906,0.93765177 L7.54837473,3.54605291 L7.3008776,3.62369531 C6.99184169,3.72070038 6.68836536,3.84607847 6.3985004,3.99618711 L6.16921569,4.11504708 L4.02762749,2.56948409 C3.40725514,3.00543177 3.00408981,3.4084054 2.56929238,4.02762749 L4.11504708,6.1694074 L3.99542027,6.39907553 C3.8466536,6.68510629 3.72089209,6.98877434 3.62177821,7.30183615 L3.5437524,7.54856644 L0.93784348,7.96917735 C0.873812465,8.31617177 0.839688152,8.6035445 0.839688152,9.00019171 C0.839688152,9.39683892 0.873812465,9.68421165 0.93765177,10.0298641 L3.54471094,10.450475 L3.62235334,10.6977804 C3.71897499,11.0052827 3.84473651,11.3093341 3.99618711,11.6016913 L4.11504708,11.8311677 L2.57025093,13.9702637 C2.99968048,14.5825842 3.41338985,14.9959102 4.0278192,15.4280237 L6.16825715,13.8834192 L6.39792528,14.0030461 C6.68242236,14.1510459 6.98666553,14.2769991 7.30202786,14.3766881 L7.54856644,14.4547139 L7.96936906,17.0613897 Z M9.00038342,12.7005709 C8.0119286,12.7005709 7.08309547,12.3154262 6.38412218,11.6162612 C5.68514889,10.9170962 5.30057939,9.98787969 5.30134623,9 C5.30057939,8.01250373 5.68514889,7.08347889 6.38431389,6.38469731 C7.08309547,5.68610744 8.01212031,5.30134623 9.00019171,5.30134623 C11.0390236,5.30134623 12.6990372,6.96059302 12.7007626,8.99980829 C12.6988455,11.0390236 11.0390236,12.6988455 9.00038342,12.7005709 Z M9,6.14084267 C8.23622886,6.14084267 7.51808461,6.4381843 6.97784689,6.97842202 C6.43760917,7.51846803 6.14026754,8.23642057 6.14084267,8.99980829 C6.14026754,9.76396285 6.43760917,10.4821071 6.97784689,11.0225365 C7.51808461,11.562966 8.23622886,11.8604993 8.99980829,11.8604993 C10.5758531,11.8591573 11.8591573,10.5758531 11.8604993,8.99961658 C11.859349,7.42376347 10.5762365,6.14084267 9,6.14084267 Z" id="Shape" fill="#FFFFFF" fill-rule="nonzero"></path>
    </g>
</svg>