<?xml version="1.0" encoding="UTF-8"?>
<svg width="18px" height="18px" viewBox="0 0 18 18" version="1.1" xmlns="http://www.w3.org/2000/svg" xmlns:xlink="http://www.w3.org/1999/xlink">
    <!-- Generator: Sketch 48.1 (47250) - http://www.bohemiancoding.com/sketch -->
    <title>cross</title>
    <desc>Created with Sketch.</desc>
    <defs></defs>
    <g id="Symbols" stroke="none" stroke-width="1" fill="none" fill-rule="evenodd">
        <path d="M3.45103923,5.23121413 C2.95945751,4.73963241 2.95945751,3.94262096 3.45103923,3.45103923 C3.94262096,2.95945751 4.73963241,2.95945751 5.23121413,3.45103923 L14.7136666,12.9334918 C15.2052484,13.4250735 15.2052484,14.2220849 14.7136666,14.7136666 C14.2220849,15.2052484 13.4250735,15.2052484 12.9334918,14.7136666 L3.45103923,5.23121413 Z" id="Line-4" fill="#FFFFFF" fill-rule="nonzero"></path>
        <path d="M14.7136666,5.23121413 L5.23121413,14.7136666 C4.73963241,15.2052484 3.94262096,15.2052484 3.45103923,14.7136666 C2.95945751,14.2220849 2.95945751,13.4250735 3.45103923,12.9334918 L12.9334918,3.45103923 C13.4250735,2.95945751 14.2220849,2.95945751 14.7136666,3.45103923 C15.2052484,3.94262096 15.2052484,4.73963241 14.7136666,5.23121413 Z" id="Line-4" fill="#FFFFFF" fill-rule="nonzero"></path>
    </g>
</svg>