<?xml version="1.0" encoding="UTF-8"?>
<svg width="18px" height="18px" viewBox="0 0 18 18" version="1.1" xmlns="http://www.w3.org/2000/svg" xmlns:xlink="http://www.w3.org/1999/xlink">
    <!-- Generator: Sketch 48.1 (47250) - http://www.bohemiancoding.com/sketch -->
    <title>exit</title>
    <desc>Created with Sketch.</desc>
    <defs></defs>
    <g id="Symbols" stroke="none" stroke-width="1" fill="none" fill-rule="evenodd">
        <path d="M9.56253133,2.06294701 L9.56253133,12.9363345 C9.56253133,13.2477768 9.31284336,13.5002506 9,13.5002506 C8.68932239,13.5002506 8.43746867,13.2530415 8.43746867,12.9363345 L8.43746867,2.06294701 L6.88673519,3.78486777 C6.67890293,4.01564287 6.32322,4.03435092 6.09229527,3.82665327 C5.86137053,3.61895568 5.84265061,3.26350328 6.05048288,3.03272815 L8.62644151,0.172406107 C8.83297039,-0.0569214328 9.16724788,-0.0566793756 9.37355849,0.172406107 L11.9495171,3.03272815 C12.1573494,3.26350328 12.1386295,3.61895568 11.9077047,3.82665327 C11.67678,4.03435092 11.3210971,4.01564287 11.1132648,3.78486777 L9.56253133,2.06294701 Z M-0.00050121153,17.4374795 L-0.00050121153,9.56302168 C-0.00050121153,9.25011881 0.251352501,9 0.562030114,9 C0.874873473,9 1.12456144,9.25357793 1.12456144,9.56638213 L1.12456144,16.8754386 L16.8754386,16.8754386 L16.8754386,9.56638213 C16.8754386,9.25311029 17.1272923,9 17.4379699,9 C17.7508132,9 18.0005012,9.25207338 18.0005012,9.56302168 L18.0005012,17.4374795 C18.0005012,17.7503824 17.7504639,18.0005012 17.442028,18.0005012 L0.557972013,18.0005012 C0.253966584,18.0005012 -0.00050121153,17.7484278 -0.00050121153,17.4374795 Z" id="Shape" fill="#FFFFFF" transform="translate(9.000000, 9.000501) rotate(-90.000000) translate(-9.000000, -9.000501) "></path>
    </g>
</svg>