<?xml version="1.0" encoding="UTF-8"?>
<svg width="18px" height="18px" viewBox="0 0 18 18" version="1.1" xmlns="http://www.w3.org/2000/svg" xmlns:xlink="http://www.w3.org/1999/xlink">
    <!-- Generator: Sketch 51.3 (57544) - http://www.bohemiancoding.com/sketch -->
    <title>finance</title>
    <desc>Created with Sketch.</desc>
    <defs></defs>
    <g id="finance" stroke="none" stroke-width="1" fill="none" fill-rule="evenodd">
        <g id="Group-4" fill="#FFFFFF">
            <polygon id="Path" points="6.75 5.35178571 8.4375 5.35178571 8.4375 4.19464286 9.5625 4.19464286 9.5625 5.35178571 11.25 5.35178571 11.25 7.66607143 10.125 7.66607143 10.125 6.50892857 7.875 6.50892857 7.875 8.82321429 11.25 8.82321429 11.25 13.4517857 9.5625 13.4517857 9.5625 14.6089286 8.4375 14.6089286 8.4375 13.4517857 6.75 13.4517857 6.75 11.1375 7.875 11.1375 7.875 12.2946429 10.125 12.2946429 10.125 9.98035714 6.75 9.98035714"></polygon>
            <path d="M9,16.875 C13.3492424,16.875 16.875,13.3492424 16.875,9 C16.875,4.6507576 13.3492424,1.125 9,1.125 C4.6507576,1.125 1.125,4.6507576 1.125,9 C1.125,13.3492424 4.6507576,16.875 9,16.875 Z M9,18 C4.02943725,18 0,13.9705627 0,9 C0,4.02943725 4.02943725,0 9,0 C13.9705627,0 18,4.02943725 18,9 C18,13.9705627 13.9705627,18 9,18 Z" id="Oval-Copy" fill-rule="nonzero"></path>
        </g>
    </g>
</svg>