<?xml version="1.0" encoding="UTF-8"?>
<svg width="18px" height="18px" viewBox="0 0 18 18" version="1.1" xmlns="http://www.w3.org/2000/svg" xmlns:xlink="http://www.w3.org/1999/xlink">
    <!-- Generator: Sketch 48.1 (47250) - http://www.bohemiancoding.com/sketch -->
    <title>finance</title>
    <desc>Created with Sketch.</desc>
    <defs></defs>
    <g id="Symbols" stroke="none" stroke-width="1" fill="none" fill-rule="evenodd">
        <path d="M5.23928913,17.5073057 C7.54880479,17.5073057 9.45967428,16.6830548 10.1724825,15.5060085 C10.9557649,15.7577627 11.8366923,15.8963761 12.7634704,15.8963761 C15.7008856,15.8963761 18,14.5667064 18,12.8678963 L18,4.02890432 C18,2.32966968 15.7008856,1 12.7634704,1 C9.82647971,1 7.52524264,2.32966968 7.52524264,4.02890432 L7.52524264,7.32569548 C6.82007618,7.1338019 6.04464781,7.03169923 5.23907685,7.03169923 C2.30166162,7.03169923 0,8.36115664 0,10.0582686 L0,14.4792504 C0.000424543321,16.1780605 2.30187389,17.5073057 5.23928913,17.5073057 Z M16.9106218,12.8681085 C16.9106218,13.7851221 15.2082031,14.8065733 12.7636827,14.8065733 C11.9124733,14.8065733 11.0869488,14.66796 10.3866646,14.4253334 L10.3866646,13.2710002 C11.1136951,13.4834841 11.9218133,13.5968372 12.7636827,13.5968372 C14.4864795,13.5968372 15.9827824,13.1338727 16.9106218,12.4138472 L16.9106218,12.8681085 Z M16.9106218,11.0368409 C16.5298065,11.8784981 14.9347972,12.6872531 12.7636827,12.6872531 C11.9052561,12.6872531 11.0945906,12.5535219 10.3866646,12.3125936 L10.3866646,11.0635872 C11.1117846,11.2741606 11.9201151,11.3860278 12.7636827,11.3860278 C14.4864795,11.3860278 15.9827824,10.9232756 16.9106218,10.2030378 L16.9106218,11.0368409 Z M16.9106218,8.8281543 C16.5298065,9.6700237 14.9347972,10.4770806 12.7636827,10.4770806 C11.9143838,10.4770806 11.0869488,10.3401653 10.3817824,10.101572 C10.3817824,10.0871375 10.3864524,10.072703 10.3864524,10.0584808 C10.3864524,9.54542024 10.1661144,9.06165312 9.76301048,8.63774662 C10.6031817,8.97653219 11.6341852,9.17606755 12.7634704,9.17606755 C14.4862672,9.17606755 15.9825701,8.71373987 16.9104096,7.99265304 L16.9104096,8.8281543 L16.9106218,8.8281543 Z M16.9106218,6.6177695 C16.5298065,7.4596389 14.9347972,8.26669576 12.7636827,8.26669576 C10.5927804,8.26669576 8.99777115,7.4596389 8.61525762,6.6177695 L8.61525762,5.78248051 C9.54500749,6.50293053 11.0413104,6.96610729 12.7636827,6.96610729 C14.4864795,6.96610729 15.9827824,6.50271826 16.9106218,5.78248051 L16.9106218,6.6177695 Z M8.81182117,3.47614892 C9.32445723,2.74508532 10.8063257,2.09043952 12.7634704,2.09043952 C15.2082031,2.09043952 16.9104096,3.11104166 16.9104096,4.0291166 C16.9104096,4.99665082 15.8940529,5.43668998 15.1077986,5.69927002 C14.4531528,5.91918346 13.6569218,6.05694777 12.7634704,6.05694777 C11.0833402,6.05694777 9.74963737,5.57339293 9.05381087,4.96608371 C8.61207354,4.57911247 8.45138389,3.984115 8.81182117,3.47614892 Z M1.28742762,9.50614998 C1.61305235,9.04339776 2.32564831,8.61248629 3.30061205,8.35754803 C3.86589148,8.21023149 4.5196882,8.12192648 5.23928913,8.12192648 C6.10939066,8.12192648 7.00114391,8.25395946 7.83176292,8.5120818 C8.28284019,8.65218109 8.70610989,8.86126868 9.05890539,9.21066783 C9.32955175,9.47834239 9.47686829,9.7689423 9.47686829,10.0584808 C9.47686829,11.018161 7.73687748,12.0877979 5.23928913,12.0877979 C3.66805429,12.0877979 2.39782068,11.6649528 1.67291296,11.1128342 C1.1602769,10.7222543 0.87689423,10.089897 1.28742762,9.50614998 Z M1.09086406,11.8137552 C2.02040167,12.5346298 3.5167046,12.9967452 5.23928913,12.9967452 C7.01663974,12.9967452 8.55688291,12.5059731 9.47686829,11.7443424 L9.47686829,12.2701393 C9.47686829,13.2298195 7.73687748,14.2981827 5.23928913,14.2981827 C3.06817458,14.2981827 1.47295305,13.4915504 1.09086406,12.6494687 L1.09086406,11.8137552 Z M1.09086406,14.0243523 C2.02040167,14.7452268 3.5167046,15.2069177 5.23928913,15.2069177 C7.01663974,15.2069177 8.55688291,14.7161456 9.47686829,13.955364 L9.5044636,14.8649481 C9.5044636,14.8649481 8.56303879,16.3412975 5.23928913,16.4168662 C2.79455641,16.4722691 1.09086406,15.396264 1.09086406,14.4794627 L1.09086406,14.0243523 Z" id="Shape-Copy" fill="#FFFFFF" fill-rule="nonzero"></path>
    </g>
</svg>