<?xml version="1.0" encoding="UTF-8"?>
<svg width="18px" height="18px" viewBox="0 0 18 18" version="1.1" xmlns="http://www.w3.org/2000/svg" xmlns:xlink="http://www.w3.org/1999/xlink">
    <!-- Generator: Sketch 48.1 (47250) - http://www.bohemiancoding.com/sketch -->
    <title>help</title>
    <desc>Created with Sketch.</desc>
    <defs></defs>
    <g id="Symbols" stroke="none" stroke-width="1" fill="none" fill-rule="evenodd">
        <path d="M9,17 C13.418278,17 17,13.418278 17,9 C17,4.581722 13.418278,1 9,1 C4.581722,1 1,4.581722 1,9 C1,13.418278 4.581722,17 9,17 Z M9,18 C4.02943725,18 0,13.9705627 0,9 C0,4.02943725 4.02943725,0 9,0 C13.9705627,0 18,4.02943725 18,9 C18,13.9705627 13.9705627,18 9,18 Z" id="Oval-4" fill="#FFFFFF" fill-rule="nonzero"></path>
        <path d="M9.17,6 C9.8100032,6 10.3066649,6.17499825 10.66,6.525 C11.0133351,6.87500175 11.19,7.3266639 11.19,7.88 C11.19,8.213335 11.1266673,8.4966655 11,8.73 C10.8733327,8.9633345 10.6966678,9.1899989 10.47,9.41 C10.4233331,9.4500002 10.3133342,9.5499992 10.14,9.71 C9.9666658,9.8700008 9.83833375,10.0366658 9.755,10.21 C9.67166625,10.3833342 9.63,10.5733323 9.63,10.78 L9.63,10.95 L8.42,10.95 L8.42,10.66 C8.42,10.2933315 8.49166595,9.9933345 8.635,9.76 C8.77833405,9.5266655 8.93166585,9.32833415 9.095,9.165 L9.41,8.85 C9.5900009,8.6766658 9.72499955,8.52166735 9.815,8.385 C9.90500045,8.24833265 9.95,8.0966675 9.95,7.93 C9.95,7.7033322 9.88166735,7.52166735 9.745,7.385 C9.60833265,7.24833265 9.406668,7.18 9.14,7.18 C8.8599986,7.18 8.63500085,7.2666658 8.465,7.44 C8.29499915,7.6133342 8.21,7.8399986 8.21,8.12 L7,8.12 C7,7.4599967 7.19166475,6.94166855 7.575,6.565 C7.95833525,6.18833145 8.4899966,6 9.17,6 Z M9.72,13.15 L8.33,13.15 L8.33,11.76 L9.72,11.76 L9.72,13.15 Z" id="?" fill="#FFFFFF"></path>
    </g>
</svg>