<svg id="Groupe_19" data-name="Groupe 19" xmlns="http://www.w3.org/2000/svg" xmlns:xlink="http://www.w3.org/1999/xlink" width="9.212" height="10.792" viewBox="0 0 9.212 10.792">
  <defs>
    <clipPath id="clip-path">
      <rect id="Rectangle_2495" data-name="Rectangle 2495" width="9.212" height="10.792" fill="#bc2a8d"/>
    </clipPath>
  </defs>
  <g id="Groupe_12" data-name="Groupe 12" clip-path="url(#clip-path)">
    <path id="Tracé_3" data-name="Tracé 3" d="M0,7.964V4.4c.006-.067.014-.134.018-.2a4.221,4.221,0,0,1,.091-.753,2.3,2.3,0,0,1,.915-1.387,2.455,2.455,0,0,1,1.188-.438A8.29,8.29,0,0,1,3.1,1.578h.616l.053,0-.043-.058L3.134.732A.451.451,0,0,1,3.592.017.465.465,0,0,1,3.861.2q.341.455.684.909l.032.041.031-.037L5.084.5c.087-.111.172-.223.26-.333a.45.45,0,1,1,.7.562l-.631.808c-.008.01-.014.021-.025.037h.055c.415,0,.83-.009,1.245.017a3.965,3.965,0,0,1,.593.072A2.3,2.3,0,0,1,8.922,2.91a2.664,2.664,0,0,1,.26.975c.022.226.029.452.029.678q0,1.689,0,3.378a4.426,4.426,0,0,1-.08.9,2.293,2.293,0,0,1-1.269,1.664,2.585,2.585,0,0,1-.906.243,7.982,7.982,0,0,1-.817.04H3.368c-.282,0-.563,0-.845-.019a4.374,4.374,0,0,1-.6-.073A2.33,2.33,0,0,1,.072,8.733a5.382,5.382,0,0,1-.056-.6c0-.058-.011-.116-.017-.174M8.318,6.185q0-.767,0-1.534,0-.175,0-.351a3.364,3.364,0,0,0-.049-.568A1.468,1.468,0,0,0,7.7,2.8a1.567,1.567,0,0,0-.8-.3,6.188,6.188,0,0,0-.629-.027q-1.734,0-3.467,0a3.309,3.309,0,0,0-.649.053,1.466,1.466,0,0,0-.95.612,1.629,1.629,0,0,0-.274.813c-.017.2-.02.4-.02.593q0,1.5,0,3c0,.171,0,.342,0,.513a3.035,3.035,0,0,0,.055.595,1.462,1.462,0,0,0,.729,1.009,1.631,1.631,0,0,0,.712.2c.182.012.365.019.548.019q1.738,0,3.476,0a3.356,3.356,0,0,0,.6-.045,1.464,1.464,0,0,0,1.137-.88A1.709,1.709,0,0,0,8.3,8.357q.017-.28.018-.562c0-.537,0-1.073,0-1.61" transform="translate(0 0.001)" fill="#bc2a8d"/>
    <path id="Tracé_4" data-name="Tracé 4" d="M97.484,276.662l.348-.094,1.552-.419a.449.449,0,0,1,.261.86c-.113.036-.228.064-.342.094l-2.059.558c-.019.005-.037.012-.055.018a.45.45,0,0,1-.6-.346.521.521,0,0,1-.006-.09c0-.2,0-.4,0-.6,0-.01,0-.02,0-.034l-.115.03-1.782.482a.45.45,0,0,1-.247-.865c.293-.082.587-.16.88-.239l1.591-.43a.448.448,0,0,1,.563.332.523.523,0,0,1,.012.111c0,.2,0,.4,0,.594,0,.01,0,.021,0,.037" transform="translate(-92.42 -270.622)" fill="#bc2a8d"/>
  </g>
</svg>
