<?xml version="1.0" encoding="UTF-8"?>
<svg width="18px" height="18px" viewBox="0 0 18 18" version="1.1" xmlns="http://www.w3.org/2000/svg" xmlns:xlink="http://www.w3.org/1999/xlink">
    <!-- Generator: Sketch 51.3 (57544) - http://www.bohemiancoding.com/sketch -->
    <title>inbox</title>
    <desc>Created with Sketch.</desc>
    <defs></defs>
    <g id="inbox" stroke="none" stroke-width="1" fill="none" fill-rule="evenodd">
        <path d="M4.37269966,11 C4.72048267,11 5,11.1983597 5,11.4410929 C5,11.6838262 4.72048267,11.8821858 4.37269966,11.8821858 L2.62730034,11.8821858 C2.27951733,11.8821858 2,11.6838262 2,11.4410929 C2,11.1983597 2.27951733,11 2.62730034,11 L4.37269966,11 Z" id="Line-9" fill="#FFFFFF" fill-rule="nonzero"></path>
        <path d="M4.47425711,9 C4.76573542,9 5,9.19835966 5,9.44109292 C5,9.68382617 4.76573542,9.88218583 4.47425711,9.88218583 L1.52574289,9.88218583 C1.23426458,9.88218583 1,9.68382617 1,9.44109292 C1,9.19835966 1.23426458,9 1.52574289,9 L4.47425711,9 Z" id="Line-9-Copy" fill="#FFFFFF" fill-rule="nonzero"></path>
        <path d="M4.53002173,7 C4.79058345,7 5,7.19835966 5,7.44109292 C5,7.68382617 4.79058345,7.88218583 4.53002173,7.88218583 L0.46997827,7.88218583 C0.209416549,7.88218583 0,7.68382617 0,7.44109292 C0,7.19835966 0.209416549,7 0.46997827,7 L4.53002173,7 Z" id="Line-9-Copy-2" fill="#FFFFFF" fill-rule="nonzero"></path>
        <path d="M8.52149073,9.00806411 L4.5890132,5.13222079 L4.58503147,5.03115429 L5.03626531,4.50446844 L5.13049381,4.50019777 L10.8067891,10.094745 C10.9087941,10.195281 11.0655734,10.1953383 11.1676423,10.0948768 L16.8520404,4.5 L16.9462661,4.50433953 L17.3971653,5.03135499 L17.3931194,5.13241855 L13.4412354,9.022066 L17.3735769,12.7823654 C17.5293633,12.9313361 17.5430593,13.1875552 17.4041678,13.3546468 C17.2652762,13.5217384 17.0263925,13.5364283 16.870606,13.3874576 L12.8815562,9.57293098 L11.7087213,10.7272954 C11.3004458,11.1291412 10.6733287,11.128912 10.2653085,10.726768 L9.08027494,9.5588009 L5.13207217,13.4073981 C4.97761773,13.5579559 4.73861422,13.5457108 4.59824289,13.3800479 C4.45787156,13.2143849 4.46928817,12.9580373 4.62374261,12.8074795 L8.52149073,9.00806411 Z" id="Combined-Shape" fill="#FFFFFF" fill-rule="nonzero"></path>
        <path d="M5,4 L17,4 C17.5522847,4 18,4.44771525 18,5 L4,5 L4,5 C4,4.44771525 4.44771525,4 5,4 Z" id="Rectangle-27" fill="#FFFFFF"></path>
        <path d="M5,13 L17,13 C17.5522847,13 18,13.4477153 18,14 L4,14 L4,14 C4,13.4477153 4.44771525,13 5,13 Z" id="Rectangle-27" fill="#FFFFFF" transform="translate(11.000000, 13.500000) rotate(180.000000) translate(-11.000000, -13.500000) "></path>
        <path d="M18,4.95343018 L18,13.0720825 L17,13.0720825 L17,4.95343018 C17.3681898,4.95343018 17.7015232,4.95343018 18,4.95343018 Z" id="Rectangle-27" fill="#FFFFFF"></path>
        <path d="M4,13.0125122 L4,5 C4.29847683,5 4.63181017,5 5,5 L5,13.0125122 C4.63181017,13.0125122 4.29847683,13.0125122 4,13.0125122 Z" id="Rectangle-27" fill="#FFFFFF"></path>
    </g>
</svg>