<?xml version="1.0" encoding="UTF-8"?>
<svg width="18px" height="18px" viewBox="0 0 18 18" version="1.1" xmlns="http://www.w3.org/2000/svg" xmlns:xlink="http://www.w3.org/1999/xlink">
    <!-- Generator: Sketch 51.3 (57544) - http://www.bohemiancoding.com/sketch -->
    <title>inbox</title>
    <desc>Created with Sketch.</desc>
    <defs></defs>
    <g id="inbox" stroke="none" stroke-width="1" fill="none" fill-rule="evenodd">
        <g id="Group" transform="translate(0.000000, 3.000000)" fill="#FFFFFF" fill-rule="nonzero">
            <path d="M1.02272727,0.0736657627 C0.466750227,0.0736657627 0,0.537781017 0,1.09061492 L0,10.8533288 C0,11.4061627 0.466750227,11.870278 1.02272727,11.870278 L16.9772727,11.870278 C17.5332498,11.870278 18,11.4061627 18,10.8533288 L18,1.09061288 C18,0.537778983 17.5332498,0.0736637288 16.9772727,0.0736637288 L1.02272727,0.0736637288 L1.02272727,0.0736657627 Z M2.19886364,1.29400475 L15.8011364,1.29400475 L9.21732955,7.14146441 C9.12763432,7.22117288 8.87236568,7.22117288 8.78267045,7.14146441 L2.19886364,1.29400475 Z M1.22727273,2.06306237 L5.82315341,6.14993898 L1.22727273,9.93172881 L1.22727273,2.06306237 Z M16.7727273,2.06306237 L16.7727273,9.93172881 L12.1768466,6.14993898 L16.7727273,2.06306237 Z M6.75,6.96984407 L7.96448864,8.05037288 C8.56034795,8.57987797 9.43965205,8.57987797 10.0355114,8.05037288 L11.25,6.96984407 L15.7244318,10.649939 L2.27556818,10.649939 L6.75,6.96984407 Z" id="Shape"></path>
        </g>
    </g>
</svg>