<?xml version="1.0" encoding="UTF-8"?>
<svg width="18px" height="18px" viewBox="0 0 18 18" version="1.1" xmlns="http://www.w3.org/2000/svg" xmlns:xlink="http://www.w3.org/1999/xlink">
    <!-- Generator: Sketch 48.1 (47250) - http://www.bohemiancoding.com/sketch -->
    <title>inbox</title>
    <desc>Created with Sketch.</desc>
    <defs></defs>
    <g id="Symbols" stroke="none" stroke-width="1" fill="none" fill-rule="evenodd">
        <path d="M17.955,10.1729667 L14.5264286,3.23963333 C14.4535714,3.09273333 14.3052857,3 14.1428571,3 L3.85714286,3 C3.69471429,3 3.54642857,3.09273333 3.47357143,3.23963333 L0.045,10.1729667 C0.0154285714,10.2327667 0,10.2995 0,10.3666667 L0,14.7 C0,15.4167333 0.576857143,16 1.28571429,16 L16.7142857,16 C17.4231429,16 18,15.4167333 18,14.7 L18,10.3666667 C18,10.2995 17.9845714,10.2327667 17.955,10.1729667 Z M4.04645849,4 L13.9535415,4 L17,10.2222222 L13.3520836,10.2222222 C13.1871396,10.2222222 13.0365575,10.3173333 12.9625721,10.468 L12.2127081,12 L5.78729192,12 L5.03699271,10.468 C4.9634425,10.3173333 4.81286041,10.2222222 4.64791644,10.2222222 L1,10.2222222 L4.04645849,4 Z M16.5789474,15 L1.42105263,15 C1.18863158,15 1,14.8208 1,14.6 L1,11 L4.52926316,11 L5.25515789,12.3788 C5.32631579,12.5144 5.47242105,12.6 5.632,12.6 L12.3688421,12.6 C12.5284211,12.6 12.6741053,12.5144 12.7456842,12.3788 L13.4715789,11 L17,11 L17,14.6 C17,14.8208 16.8113684,15 16.5789474,15 Z" id="Shape-Copy" fill="#FFFFFF" fill-rule="nonzero"></path>
    </g>
</svg>