<?xml version="1.0" encoding="UTF-8"?>
<svg width="18px" height="18px" viewBox="0 0 18 18" version="1.1" xmlns="http://www.w3.org/2000/svg" xmlns:xlink="http://www.w3.org/1999/xlink">
    <!-- Generator: Sketch 48.1 (47250) - http://www.bohemiancoding.com/sketch -->
    <title>influencers</title>
    <desc>Created with Sketch.</desc>
    <defs></defs>
    <g id="Symbols" stroke="none" stroke-width="1" fill="none" fill-rule="evenodd">
        <g id="Group-19" transform="translate(0.750000, 0.750000)" fill="#FFFFFF">
            <g>
                <g id="Path" stroke-width="1" fill-rule="evenodd" transform="translate(2.000000, 7.000000)">
                    <path d="M6.5,7.19787598 C9.72607422,7.19787598 11.7962887,4.01408303 11.7653198,3.79736328 C11.5096708,2.0083366 10.8539839,0.769230769 8.77261848,0.769230769 C7.54923089,0.769230769 6.75629448,1.41276866 6.25787731,2.31848866 C5.75946015,1.41276866 4.96652374,0.769230769 3.74313615,0.769230769 C1.43229292,0.769230769 0.914733887,2.31848866 0.758972168,3.1685791 C0.603210449,4.01866954 3.27392578,7.19787598 6.5,7.19787598 Z"></path>
                </g>
                <path d="M7.70000005,6.16346154 C7.70000005,7.25869963 6.81904767,8.16346154 5.70000005,8.16346154 C4.58095243,8.16346154 3.70000005,7.28250916 3.70000005,6.16346154 C3.70000005,5.06822344 4.58095243,4.16346154 5.70000005,4.16346154 C6.81904767,4.16346154 7.70000005,5.06822344 7.70000005,6.16346154 Z" id="Path" fill-rule="evenodd"></path>
                <path d="M12.8000002,6.16346154 C12.8000002,7.25869963 11.9190478,8.16346154 10.8000002,8.16346154 C9.68095257,8.16346154 8.80000019,7.28250916 8.80000019,6.16346154 C8.80000019,5.06822344 9.68095257,4.16346154 10.8000002,4.16346154 C11.9190478,4.16346154 12.8000002,5.06822344 12.8000002,6.16346154 Z" id="Path-Copy-2" fill-rule="evenodd"></path>
                <path d="M8.25,17.25 L8.25,15.75 C9.21084276,15.75 10.1454482,15.5696207 11.0182125,15.2228052 L11.5721437,16.6167781 C10.5238209,17.0333563 9.40131717,17.25 8.25,17.25 Z M14.0008154,15.1732906 L13.041795,14.019913 C13.7705674,13.4139471 14.3799288,12.6750045 14.8345795,11.8439723 L16.1505162,12.5639102 C15.6050622,13.560917 14.8745052,14.4468275 14.0008154,15.1732906 Z M17.0986684,9.90152005 L15.6238458,9.62784477 C15.7062455,9.18379657 15.7486883,8.73046477 15.7499671,8.27349162 C15.7499967,7.76110694 15.7032945,7.2757266 15.6098732,6.79889999 L17.081887,6.51049849 C17.194004,7.08274897 17.2500023,7.66474395 17.2499642,8.27562922 C17.2484297,8.82516636 17.1975426,9.36869179 17.0986684,9.90152005 Z M16.088916,3.82535582 L14.783263,4.56378 C14.316927,3.73922274 13.6972609,3.00879517 12.9600891,2.41311177 L13.9028586,1.2464131 C14.7866238,1.96055371 15.5294936,2.83620689 16.088916,3.82535582 Z M11.3739711,-0.192816243 L10.8532857,1.21391284 C10.0277612,0.908353979 9.15032153,0.75 8.25,0.75 C8.20233059,0.750098721 8.20233059,0.750098721 8.1547631,0.750591062 L8.13613575,-0.749293274 C8.19301632,-0.749881999 8.19301632,-0.749881999 8.25,-0.75 C9.32870307,-0.75 10.3823951,-0.559837281 11.3739711,-0.192816243 Z M5.34927914,-0.272101826 L5.83249472,1.14793434 C4.93474249,1.45342505 4.10444324,1.92768697 3.38386375,2.54271534 L2.4100622,1.40179005 C3.2743806,0.664077759 4.27098038,0.0948259865 5.34927914,-0.272101826 Z M0.54528717,3.59603772 L1.82855627,4.37271038 C1.33948452,5.18078655 1.00683564,6.07472718 0.851197313,7.01428868 L-0.62863683,6.76915421 C-0.441675636,5.64050201 -0.0419556586,4.56631853 0.54528717,3.59603772 Z M-0.65642279,9.55193944 L0.828051129,9.3366787 C0.964824106,10.2798879 1.27925377,11.1800096 1.75163641,11.9972573 L0.452973101,12.7479061 C-0.114294172,11.7665028 -0.49214546,10.6848233 -0.65642279,9.55193944 Z M2.24884958,14.9572802 L3.24938024,13.839721 C3.95531406,14.4717309 4.77434497,14.965694 5.66418115,15.2925275 L5.14701783,16.7005552 C4.0783735,16.3080462 3.0954912,15.7152632 2.24884958,14.9572802 Z M7.9165676,17.2439284 L7.97124174,15.7449251 C8.06212989,15.7482401 8.15325471,15.7499338 8.24458986,15.7499981 L8.24353322,17.2499977 C8.13431976,17.2499208 8.02531959,17.2478949 7.9165676,17.2439284 Z" id="Oval-2" fill-rule="nonzero"></path>
            </g>
        </g>
    </g>
</svg>