<?xml version="1.0" encoding="UTF-8"?>
<svg width="18px" height="18px" viewBox="0 0 18 18" version="1.1" xmlns="http://www.w3.org/2000/svg" xmlns:xlink="http://www.w3.org/1999/xlink">
    <!-- Generator: Sketch 48.1 (47250) - http://www.bohemiancoding.com/sketch -->
    <title>influencers</title>
    <desc>Created with Sketch.</desc>
    <defs></defs>
    <g id="Symbols" stroke="none" stroke-width="1" fill="none" fill-rule="evenodd">
        <g id="Group-2" fill="#FFFFFF" fill-rule="nonzero">
            <g id="Group">
                <path d="M12.7038462,0.9 C11.5961538,0.380769231 10.4192308,0.103846154 9.17307692,0.103846154 L9.13846154,1.48846154 C10.1769231,1.52307692 11.1807692,1.73076923 12.1153846,2.18076923 L12.7038462,0.9 Z" id="Shape"></path>
                <path d="M10.9384615,16.2692308 C9.96923077,16.5461538 8.89615385,16.5807692 7.89230769,16.4423077 L7.68461538,17.8269231 C8.1,17.8961538 8.55,17.9307692 8.96538462,17.9307692 C9.76153846,17.9307692 10.5230769,17.8269231 11.2846154,17.6192308 L10.9384615,16.2692308 Z" id="Shape"></path>
                <path d="M1.52307692,9.9 C1.48846154,9.58846154 1.45384615,9.31153846 1.45384615,9 C1.45384615,8.27307692 1.55769231,7.54615385 1.76538462,6.85384615 L0.45,6.47307692 C0.207692308,7.30384615 0.0692307692,8.13461538 0.0692307692,9 C0.0692307692,9.34615385 0.103846154,9.72692308 0.138461538,10.0730769 L1.52307692,9.9 Z" id="Shape"></path>
                <path d="M15.9230769,6.02307692 C16.3384615,6.95769231 16.5461538,7.96153846 16.5461538,9 L16.5461538,9.03461538 L17.9307692,9 C17.9307692,7.78846154 17.6884615,6.57692308 17.2038462,5.46923077 L15.9230769,6.02307692 Z" id="Shape"></path>
                <path d="M17.7923077,10.4884615 L16.4423077,10.2461538 C16.2692308,11.25 15.8884615,12.2192308 15.3346154,13.0846154 L16.5115385,13.8461538 C17.1692308,12.8076923 17.5846154,11.7 17.7923077,10.4884615 Z" id="Shape"></path>
                <path d="M7.92692308,1.52307692 L7.71923077,0.138461538 C6.50769231,0.311538462 5.36538462,0.726923077 4.32692308,1.35 L5.05384615,2.52692308 C5.95384615,2.04230769 6.92307692,1.69615385 7.92692308,1.52307692 Z" id="Shape"></path>
                <path d="M15.6115385,14.9884615 L14.5730769,14.0538462 C13.8807692,14.8153846 13.05,15.4384615 12.1153846,15.8538462 L12.7038462,17.1 C13.7769231,16.6153846 14.7807692,15.9230769 15.6115385,14.9884615 Z" id="Shape"></path>
                <path d="M0.45,11.4923077 C0.796153846,12.6692308 1.35,13.7423077 2.14615385,14.6769231 L3.21923077,13.8115385 C2.56153846,13.0153846 2.07692308,12.1153846 1.8,11.1115385 L0.45,11.4923077 Z" id="Shape"></path>
                <path d="M6.71538462,16.1653846 C5.74615385,15.8538462 4.84615385,15.3346154 4.05,14.6769231 L3.15,15.7153846 C4.08461538,16.5115385 5.12307692,17.1346154 6.3,17.4807692 L6.71538462,16.1653846 Z" id="Shape"></path>
                <path d="M15.3346154,4.91538462 L16.5115385,4.15384615 C15.8538462,3.11538462 14.9884615,2.25 13.9846154,1.55769231 L13.2230769,2.7 C14.0538462,3.32307692 14.7807692,4.05 15.3346154,4.91538462 Z" id="Shape"></path>
                <path d="M4.08461538,3.28846154 L3.18461538,2.25 C2.25,3.04615385 1.52307692,4.01538462 0.969230769,5.12307692 L2.21538462,5.71153846 C2.66538462,4.77692308 3.28846154,3.98076923 4.08461538,3.28846154 Z" id="Shape"></path>
            </g>
            <path d="M8.57647059,7.34042553 C8.57647059,8.07446809 7.99607843,8.68085106 7.25882353,8.68085106 C6.52156863,8.68085106 5.94117647,8.09042553 5.94117647,7.34042553 C5.94117647,6.60638298 6.52156863,6 7.25882353,6 C7.99607843,6 8.57647059,6.60638298 8.57647059,7.34042553 Z M10.7411765,6 C10.0196078,6 9.42352941,6.59042553 9.42352941,7.34042553 C9.42352941,8.07446809 10.0039216,8.68085106 10.7411765,8.68085106 C11.4784314,8.68085106 12.0588235,8.09042553 12.0588235,7.34042553 C12.0588235,6.60638298 11.4627451,6 10.7411765,6 Z M13,12 C12.8745098,10.5957447 12.3568627,9.06382979 10.7411765,9.06382979 C9.89411765,9.06382979 9.34509804,9.49468085 9,10.1010638 C8.65490196,9.49468085 8.10588235,9.06382979 7.25882353,9.06382979 C5.65882353,9.06382979 5.14117647,10.5957447 5,12 L8.48235294,12 L9.51764706,12 L13,12 Z" id="Shape"></path>
        </g>
    </g>
</svg>