<?xml version="1.0" encoding="UTF-8"?>
<svg width="18px" height="18px" viewBox="0 0 18 18" version="1.1" xmlns="http://www.w3.org/2000/svg" xmlns:xlink="http://www.w3.org/1999/xlink">
    <!-- Generator: Sketch 48.1 (47250) - http://www.bohemiancoding.com/sketch -->
    <title>list</title>
    <desc>Created with Sketch.</desc>
    <defs></defs>
    <g id="Symbols" stroke="none" stroke-width="1" fill="none" fill-rule="evenodd">
        <path d="M5.5,5 C5.22385763,5 5,4.77614237 5,4.5 C5,4.22385763 5.22385763,4 5.5,4 L17.5,4 C17.7761424,4 18,4.22385763 18,4.5 C18,4.77614237 17.7761424,5 17.5,5 L5.5,5 Z" id="Line-2" fill="#FFFFFF" fill-rule="nonzero"></path>
        <path d="M5.5,10 C5.22385763,10 5,9.77614237 5,9.5 C5,9.22385763 5.22385763,9 5.5,9 L17.5,9 C17.7761424,9 18,9.22385763 18,9.5 C18,9.77614237 17.7761424,10 17.5,10 L5.5,10 Z" id="Line-2-Copy" fill="#FFFFFF" fill-rule="nonzero"></path>
        <path d="M5.5,15 C5.22385763,15 5,14.7761424 5,14.5 C5,14.2238576 5.22385763,14 5.5,14 L17.5,14 C17.7761424,14 18,14.2238576 18,14.5 C18,14.7761424 17.7761424,15 17.5,15 L5.5,15 Z" id="Line-2-Copy-2" fill="#FFFFFF" fill-rule="nonzero"></path>
        <path d="M0,4.56500006 C0,3.70067439 0.702433139,3 1.56500006,3 C2.42932572,3 3.13000011,3.70243314 3.13000011,4.56500006 C3.13000011,5.42932572 2.42756698,6.13000011 1.56500006,6.13000011 C0.700674392,6.13000011 0,5.42756698 0,4.56500006 Z M0.978125036,4.56500006 C0.978125036,4.88814068 1.24165485,5.15187508 1.56500006,5.15187508 C1.88814068,5.15187508 2.15187508,4.88834527 2.15187508,4.56500006 C2.15187508,4.24185943 1.88834527,3.97812504 1.56500006,3.97812504 C1.24185943,3.97812504 0.978125036,4.24165485 0.978125036,4.56500006 Z M0,14.5650001 C0,13.7006744 0.702433139,13 1.56500006,13 C2.42932572,13 3.13000011,13.7024331 3.13000011,14.5650001 C3.13000011,15.4293257 2.42756698,16.1300001 1.56500006,16.1300001 C0.700674392,16.1300001 0,15.427567 0,14.5650001 Z M0,9.56500006 C0,8.70067439 0.702433139,8 1.56500006,8 C2.42932572,8 3.13000011,8.70243314 3.13000011,9.56500006 C3.13000011,10.4293257 2.42756698,11.1300001 1.56500006,11.1300001 C0.700674392,11.1300001 0,10.427567 0,9.56500006 Z M1,9.58687502 C1,9.91001565 1.26352981,10.17375 1.58687502,10.17375 C1.91001565,10.17375 2.17375004,9.91022023 2.17375004,9.58687502 C2.17375004,9.2637344 1.91022023,9 1.58687502,9 C1.2637344,9 1,9.26352981 1,9.58687502 Z M1,14.586875 C1,14.9100156 1.26352981,15.17375 1.58687502,15.17375 C1.91001565,15.17375 2.17375004,14.9102202 2.17375004,14.586875 C2.17375004,14.2637344 1.91022023,14 1.58687502,14 C1.2637344,14 1,14.2635298 1,14.586875 Z" id="Shape" fill="#FFFFFF" fill-rule="nonzero"></path>
    </g>
</svg>