<?xml version="1.0" encoding="UTF-8"?>
<svg width="18px" height="18px" viewBox="0 0 18 18" version="1.1" xmlns="http://www.w3.org/2000/svg" xmlns:xlink="http://www.w3.org/1999/xlink">
    <!-- Generator: Sketch 48.1 (47250) - http://www.bohemiancoding.com/sketch -->
    <title>messages</title>
    <desc>Created with Sketch.</desc>
    <defs></defs>
    <g id="Symbols" stroke="none" stroke-width="1" fill="none" fill-rule="evenodd">
        <g id="Page-1" transform="translate(0.000000, 1.000000)" fill="#FFFFFF">
            <path d="M13,6 C12.4513742,6 12,6.45137421 12,7 C12,7.54862579 12.4513742,8 13,8 C13.5486258,8 14,7.54862579 14,7 C14,6.45137421 13.5486258,6 13,6" id="Fill-5"></path>
            <path d="M9,6 C8.45137421,6 8,6.45137421 8,7 C8,7.54862579 8.45137421,8 9,8 C9.54862579,8 10,7.54862579 10,7 C10,6.45137421 9.54862579,6 9,6" id="Fill-5-Copy"></path>
            <path d="M5,6 C4.45137421,6 4,6.45137421 4,7 C4,7.54862579 4.45137421,8 5,8 C5.54862579,8 6,7.54862579 6,7 C6,6.45137421 5.54862579,6 5,6" id="Fill-5-Copy-2"></path>
            <path d="M0.841500575,15.9294037 L0.0002,15.5474452 L0.0002,2.07408143 C0.0002,1.46946227 0.469573342,0.9995 1.07376672,0.9995 L16.927648,0.9995 C17.5311215,0.9995 18.0002,1.46975709 18.0002,2.07408143 L18.0002,11.6986375 C18.0002,12.3021604 17.5309102,12.7732189 16.927648,12.7732189 L4.47102699,12.7732189 C4.46224459,12.7732189 3.25240245,13.8252805 0.841500575,15.9294037 Z M1.01491334,14.4299499 L3.76210717,12.0281184 C3.95747381,11.8540293 4.20949394,11.7585056 4.47102699,11.7585056 L16.927648,11.7585056 C16.9696432,11.7585056 16.9854867,11.7426024 16.9854867,11.6986375 L16.9854867,2.07408143 C16.9854867,2.02959857 16.97014,2.01421334 16.927648,2.01421334 L1.07376672,2.01421334 C1.03026907,2.01421334 1.01491334,2.02958834 1.01491334,2.07408143 L1.01491334,14.4299499 Z" id="Stroke-7" fill-rule="nonzero"></path>
        </g>
    </g>
</svg>