<?xml version="1.0" encoding="UTF-8"?>
<svg width="18px" height="18px" viewBox="0 0 18 18" version="1.1" xmlns="http://www.w3.org/2000/svg" xmlns:xlink="http://www.w3.org/1999/xlink">
    <!-- Generator: Sketch 48.1 (47250) - http://www.bohemiancoding.com/sketch -->
    <title>monitor</title>
    <desc>Created with Sketch.</desc>
    <defs></defs>
    <g id="Symbols" stroke="none" stroke-width="1" fill="none" fill-rule="evenodd">
        <path d="M6.1725904,10.1588246 C5.89217936,10.7934405 5.15968481,10.9107898 4.6294192,10.3486569 L3.44509369,8.62258213 C3.30378766,8.47583955 2.94955426,8.32883229 2.72724387,8.32883229 L0.5,8.32883229 C0.223857625,8.32883229 0,8.10497467 0,7.82883229 C0,7.55268992 0.223857625,7.32883229 0.5,7.32883229 L2.72724387,7.32883229 C3.2182193,7.32883229 3.83336824,7.58411979 4.21665163,7.99159183 L5.32280395,9.60346119 L7.93791166,3.51376462 C8.2665209,2.78656423 9.07423922,2.84097089 9.28377858,3.61584922 L11.9564999,13.4010151 L14.1792974,8.72913363 C14.4076543,8.24976021 14.9935266,7.89547707 15.5392916,7.89547707 L17.5,7.89547707 C17.7761424,7.89547707 18,8.11933469 18,8.39547707 C18,8.67161944 17.7761424,8.89547707 17.5,8.89547707 L15.5392916,8.89547707 C15.371937,8.89547707 15.141279,9.03495839 15.0821988,9.15898126 L12.5408372,14.5004215 C12.1994322,15.2171087 11.399163,15.1539191 11.188419,14.3842131 L8.53295143,4.66221007 L6.1725904,10.1588246 Z" id="Page-1" fill="#FFFFFF" fill-rule="nonzero"></path>
    </g>
</svg>