<svg xmlns="http://www.w3.org/2000/svg" xmlns:xlink="http://www.w3.org/1999/xlink" width="9.146" height="9.152" viewBox="0 0 9.146 9.152">
  <defs>
    <clipPath id="clip-path">
      <rect id="Rectangle_2498" data-name="Rectangle 2498" width="9.146" height="9.152" fill="#bc2a8d"/>
    </clipPath>
  </defs>
  <g id="Groupe_20" data-name="Groupe 20" clip-path="url(#clip-path)">
    <path id="Tracé_7" data-name="Tracé 7" d="M9.144,4.588c0,.654,0,1.308,0,1.962A2.536,2.536,0,0,1,6.974,9.129a.887.887,0,0,1-.15.013c-1.481,0-2.963.024-4.444,0A2.5,2.5,0,0,1,.051,7.126,1.984,1.984,0,0,1,.009,6.76c0-1.47-.023-2.941.008-4.41A2.466,2.466,0,0,1,2.347.024q2.2-.048,4.41,0a2.478,2.478,0,0,1,2.376,2.37c.027.731,0,1.464,0,2.2ZM.716,3.012V3.2q0,1.66,0,3.32A1.835,1.835,0,0,0,2.624,8.437q1.953,0,3.907,0a1.835,1.835,0,0,0,1.9-1.9q0-1.668,0-3.337V3.012ZM3.051.723A.445.445,0,0,0,3.073.8c.26.468.518.937.785,1.4a.232.232,0,0,0,.172.086c.4.007.793,0,1.19,0h.731a.722.722,0,0,0-.03-.078c-.259-.468-.516-.938-.782-1.4A.232.232,0,0,0,4.968.727c-.369-.008-.737,0-1.106,0H3.051M5.924.729c.288.519.558,1.011.836,1.5a.2.2,0,0,0,.153.063c.452,0,.9,0,1.356,0a1.349,1.349,0,0,0,.14-.016A1.85,1.85,0,0,0,7.53.98,2.775,2.775,0,0,0,5.924.729M.758,2.279H3.069L2.221.754A1.8,1.8,0,0,0,.758,2.279" transform="translate(0 0.001)" fill="#bc2a8d"/>
    <path id="Tracé_8" data-name="Tracé 8" d="M104.258,127.07c0-.335,0-.67,0-1a.38.38,0,0,1,.6-.348q.879.5,1.751,1.012a.383.383,0,0,1,0,.7q-.872.511-1.751,1.013a.383.383,0,0,1-.6-.348c0-.34,0-.681,0-1.021" transform="translate(-100.76 -121.435)" fill="#bc2a8d"/>
  </g>
</svg>
