<?xml version="1.0" encoding="UTF-8"?>
<svg width="18px" height="18px" viewBox="0 0 18 18" version="1.1" xmlns="http://www.w3.org/2000/svg" xmlns:xlink="http://www.w3.org/1999/xlink">
    <!-- Generator: Sketch 48.1 (47250) - http://www.bohemiancoding.com/sketch -->
    <title>rejected</title>
    <desc>Created with Sketch.</desc>
    <defs></defs>
    <g id="Symbols" stroke="none" stroke-width="1" fill="none" fill-rule="evenodd">
        <path d="M9.00275668,7.58854312 L13.9454654,2.6458344 C14.3359897,2.2553101 14.9691547,2.2553101 15.359679,2.6458344 C15.7502033,3.03635869 15.7502033,3.66952367 15.359679,4.06004796 L10.4169702,9.00275668 L15.359679,13.9454654 C15.7502033,14.3359897 15.7502033,14.9691547 15.359679,15.359679 C14.9691547,15.7502033 14.3359897,15.7502033 13.9454654,15.359679 L9.00275668,10.4169702 L4.06004796,15.359679 C3.66952367,15.7502033 3.03635869,15.7502033 2.6458344,15.359679 C2.2553101,14.9691547 2.2553101,14.3359897 2.6458344,13.9454654 L7.58854312,9.00275668 L2.6458344,4.06004796 C2.2553101,3.66952367 2.2553101,3.03635869 2.6458344,2.6458344 C3.03635869,2.2553101 3.66952367,2.2553101 4.06004796,2.6458344 L9.00275668,7.58854312 Z" id="Combined-Shape" fill="#FFFFFF" fill-rule="nonzero"></path>
    </g>
</svg>