<?xml version="1.0" encoding="UTF-8"?>
<svg width="18px" height="18px" viewBox="0 0 18 18" version="1.1" xmlns="http://www.w3.org/2000/svg" xmlns:xlink="http://www.w3.org/1999/xlink">
    <!-- Generator: Sketch 48.1 (47250) - http://www.bohemiancoding.com/sketch -->
    <title>search</title>
    <desc>Created with Sketch.</desc>
    <defs></defs>
    <g id="Symbols" stroke="none" stroke-width="1" fill="none" fill-rule="evenodd">
        <g id="Group-2-Copy" transform="translate(1.000000, 1.000000)" fill="#FFFFFF" fill-rule="nonzero">
            <g id="Group-11">
                <path d="M6.66666667,12.3333333 C9.79628025,12.3333333 12.3333333,9.79628025 12.3333333,6.66666667 C12.3333333,3.53705308 9.79628025,1 6.66666667,1 C3.53705308,1 1,3.53705308 1,6.66666667 C1,9.79628025 3.53705308,12.3333333 6.66666667,12.3333333 Z M11.7210699,11.0139631 L16.0404401,15.3333333 L15.3333333,16.0404401 L11.0139631,11.7210699 C9.84675119,12.725905 8.32764518,13.3333333 6.66666667,13.3333333 C2.98476833,13.3333333 0,10.348565 0,6.66666667 C0,2.98476833 2.98476833,0 6.66666667,0 C10.348565,0 13.3333333,2.98476833 13.3333333,6.66666667 C13.3333333,8.32764518 12.725905,9.84675119 11.7210699,11.0139631 Z" id="Combined-Shape"></path>
            </g>
        </g>
    </g>
</svg>