<?xml version="1.0" encoding="UTF-8"?>
<svg width="18px" height="18px" viewBox="0 0 18 18" version="1.1" xmlns="http://www.w3.org/2000/svg" xmlns:xlink="http://www.w3.org/1999/xlink">
    <!-- Generator: Sketch 48.1 (47250) - http://www.bohemiancoding.com/sketch -->
    <title>search</title>
    <desc>Created with Sketch.</desc>
    <defs>
        <circle id="path-1" cx="5" cy="5" r="5"></circle>
    </defs>
    <g id="Symbols" stroke="none" stroke-width="1" fill="none" fill-rule="evenodd">
        <g id="Group-2" transform="translate(0.000000, 1.000000)">
            <g stroke-width="1" fill-rule="evenodd" transform="translate(3.000000, 3.000000)">
                <mask id="mask-2" fill="white">
                    <use xlink:href="#path-1"></use>
                </mask>
                <use id="Mask" fill-opacity="0" fill="#D8D8D8" xlink:href="#path-1"></use>
                <path d="M5.63979393,5.14644704 C7.32325908,5.34776242 8.35260918,6.42065084 8.72784424,8.3651123 C7.71620687,9.47253418 6.54996415,10.0262451 5.22911608,10.0262451 C3.24784398,10.0262451 1.18261719,9.62902832 1.3324585,8.3651123 C1.47033842,7.2020909 1.94909607,5.4245992 4.35862563,5.14822675 C3.56208713,4.88582377 3,4.1438696 3,3.25 C3,2.1547619 3.88095238,1.25 5,1.25 C6.11904762,1.25 7,2.1547619 7,3.25 C7,4.1254296 6.43716927,4.87916606 5.63979393,5.14644704 Z" id="Combined-Shape" fill="#FFFFFF" mask="url(#mask-2)"></path>
            </g>
            <path d="M7.82999992,15.6599998 C3.50561037,15.6599998 0,12.1543895 0,7.82999992 C0,3.50561037 3.50561037,0 7.82999992,0 C12.1543895,0 15.6599998,3.50561037 15.6599998,7.82999992 C15.6599998,12.1543895 12.1543895,15.6599998 7.82999992,15.6599998 Z M7.82999992,14.7200239 C11.6352551,14.7200239 14.7200239,11.6352551 14.7200239,7.82999992 C14.7200239,4.02474478 11.6352551,0.93997599 7.82999992,0.93997599 C4.02474478,0.93997599 0.93997599,4.02474478 0.93997599,7.82999992 C0.93997599,11.6352551 4.02474478,14.7200239 7.82999992,14.7200239 Z" id="Oval-15" fill="#FFFFFF" fill-rule="nonzero"></path>
            <path d="M12.9327854,13.2464497 C12.7212347,13.0689647 12.693619,12.7535889 12.871104,12.5420383 C13.048589,12.3304876 13.3639648,12.302872 13.5755154,12.480357 L17.3590289,15.6546175 C17.5705796,15.8321025 17.5981952,16.1474782 17.4207102,16.3590289 C17.2432252,16.5705796 16.9278495,16.5981952 16.7162988,16.4207102 L12.9327854,13.2464497 Z" id="Line-3" fill="#FFFFFF" fill-rule="nonzero"></path>
        </g>
    </g>
</svg>