<?xml version="1.0" encoding="UTF-8"?>
<svg width="18px" height="12px" viewBox="0 0 18 12" version="1.1" xmlns="http://www.w3.org/2000/svg" xmlns:xlink="http://www.w3.org/1999/xlink">
	<title>
		Fichier 1tiktok
	</title>
	<g id="Calque_2" data-name="Calque 2">
		<g id="Calque_1-2" data-name="Calque 1">
			<g id="Yd5yIe.tif">
				<path d="M727.09,0h281.3c56.43,274.6,149.15,350,459.69,373.24V639.68c-163.62,18.51-313-16.55-452.89-114.67-1.11,22.48-2.43,36.9-2.45,51.32-.23,167,1.43,333.95-.74,500.88-3.85,296.83-231.35,514-527.7,506.36C210.12,1576.47-6.73,1339.7.16,1055,6.69,785.18,231.93,565.17,499.72,570.15V852.69c-13.66,3.3-28.08,6.74-42.48,10.3-110.63,27.28-180.09,129.1-165.82,243,13.2,105.33,105.23,187.57,211.79,189.26,112.53,1.79,204.12-77,216.08-192.2,6.56-63.07,4.8-127.12,4.89-190.73q.63-437.13.26-874.27C724.45,26.2,726.05,14.32,727.09,0Z" fill="#FFFFFF"/>
			</g>
		</g>
	</g>
</svg>
