<?xml version="1.0" encoding="UTF-8"?>
<svg width="18px" height="18px" viewBox="0 0 18 18" version="1.1" xmlns="http://www.w3.org/2000/svg" xmlns:xlink="http://www.w3.org/1999/xlink">
    <!-- Generator: Sketch 48.1 (47250) - http://www.bohemiancoding.com/sketch -->
    <title>workflow</title>
    <desc>Created with Sketch.</desc>
    <defs>
        <polygon id="path-1" points="0.0329248435 0.80053401 1.57461585 0.80053401 1.57461585 2.34273635 0.0329248435 2.34273635"></polygon>
    </defs>
    <g id="Symbols" stroke="none" stroke-width="1" fill="none" fill-rule="evenodd">
        <g id="Page-1-Copy">
            <path d="M4.91018429,16.9562039 C4.748817,17.3498578 4.93690754,17.8000417 5.3305615,17.961409 C5.72421546,18.1238041 6.17439936,17.9357136 6.33679447,17.5420596 C6.49816176,17.1484057 6.31007123,16.6982218 5.91641726,16.5358267 C5.5227633,16.3744594 5.0725794,16.5615221 4.91018429,16.9562039 Z" id="Fill-1" fill="#FFFFFF"></path>
            <path d="M7.60974599,12.4164384 C7.21609203,12.2540433 6.76590813,12.4421338 6.60351302,12.8368156 C6.44214573,13.2304696 6.63023626,13.6806535 7.02389023,13.8420207 C7.41754419,14.0044159 7.86772809,13.8163253 8.0301232,13.4226714 C8.19149049,13.0290174 8.00339995,12.5778057 7.60974599,12.4164384" id="Fill-3" fill="#FFFFFF"></path>
            <path d="M9.30307472,8.29715287 C8.90942076,8.13475777 8.45923685,8.3228483 8.29684175,8.71650226 C8.13547446,9.11118404 8.32356499,9.56034013 8.71721895,9.72273524 C9.11087292,9.88410253 9.56105682,9.69703981 9.72345193,9.30338585 C9.88481922,8.90973188 9.69672868,8.45852016 9.30307472,8.29715287" id="Fill-5" fill="#FFFFFF"></path>
            <path d="M10.9963007,4.17735346 C10.6026467,4.01598617 10.1524628,4.20304888 9.99006769,4.59773066 C9.8287004,4.99138463 10.0167909,5.44156853 10.4104449,5.60396364 C10.8040989,5.76533093 11.2542828,5.57724039 11.4166779,5.18358643 C11.5780452,4.78993247 11.3899546,4.33974856 10.9963007,4.17735346" id="Fill-7" fill="#FFFFFF"></path>
            <path d="M12.6901433,0.0580679473 C12.2964893,-0.103299343 11.8452776,0.0837633757 11.6839103,0.478445155 C11.5215152,0.872099117 11.7096058,1.32228302 12.1042875,1.48365031 C12.4979415,1.64604542 12.9481254,1.45795488 13.1094927,1.06430092 C13.2718878,0.670646959 13.0837973,0.220463054 12.6901433,0.0580679473" id="Fill-9" fill="#FFFFFF"></path>
            <path d="M12.1440641,16.519176 C11.7514379,16.682599 11.5664308,17.1348385 11.7298538,17.5274646 C11.8932767,17.9200908 12.3455162,18.1050979 12.7381424,17.9416749 C13.1307685,17.778252 13.3168034,17.3260125 13.1523527,16.9333863 C12.9889297,16.5407602 12.5366902,16.3547253 12.1440641,16.519176" id="Fill-11" fill="#FFFFFF"></path>
            <path d="M10.42874,12.4089353 C10.0361139,12.5733861 9.850079,13.0245978 10.0145297,13.4172239 C10.1779527,13.8098501 10.6291644,13.9948572 11.0228183,13.8314342 C11.4154445,13.6680113 11.6014794,13.2157718 11.4370287,12.8231456 C11.2725779,12.4305195 10.8213662,12.2444846 10.42874,12.4089353" id="Fill-13" fill="#FFFFFF"></path>
            <path d="M8.71331325,8.2986946 C8.3206871,8.46314534 8.1346522,8.91435706 8.29910294,9.30698321 C8.46252587,9.69960935 8.91373759,9.88564425 9.30739155,9.72119351 C9.7000177,9.55777059 9.8860526,9.10655887 9.72160186,8.7129049 C9.55715112,8.32027876 9.10593939,8.13424386 8.71331325,8.2986946" id="Fill-15" fill="#FFFFFF"></path>
            <path d="M6.99747533,4.18845388 C6.60484918,4.35290462 6.4198421,4.80411634 6.58326502,5.19674249 C6.74668794,5.58936863 7.19892748,5.77540354 7.59155363,5.61095279 C7.98417977,5.44752987 8.17021468,4.99631815 8.00576393,4.60266419 C7.84234101,4.21003804 7.39010147,4.02400314 6.99747533,4.18845388" id="Fill-17" fill="#FFFFFF"></path>
            <path d="M5.28215131,0.0781103814 C4.88952517,0.242561123 4.70451808,0.693772845 4.86794101,1.08639899 C5.03136393,1.47902513 5.48360347,1.66506004 5.87622961,1.50060929 C6.26885576,1.33718637 6.45489066,0.885974649 6.29043992,0.492320686 C6.127017,0.0996945413 5.67477746,-0.0863403599 5.28215131,0.0781103814" id="Fill-19" fill="#FFFFFF"></path>
            <g id="Group-23" transform="translate(16.445068, 10.825069)">
                <mask id="mask-2" fill="white">
                    <use xlink:href="#path-1"></use>
                </mask>
                <g id="Clip-22"></g>
                <path d="M0.0908590346,1.2787073 C-0.0705082554,1.67236126 0.116554463,2.12254516 0.511236242,2.28494027 C0.904890205,2.44630756 1.35507411,2.25821702 1.5164414,1.86456306 C1.67883651,1.4709091 1.49074597,1.0207252 1.09709201,0.858330088 C0.703438046,0.696962798 0.253254142,0.885053334 0.0908590346,1.2787073" id="Fill-21" fill="#FFFFFF" mask="url(#mask-2)"></path>
            </g>
            <path d="M12.4166412,10.4100366 C12.2542461,10.8036905 12.4423366,11.2549022 12.8370184,11.4162695 C13.2306723,11.5786646 13.6808562,11.3905741 13.8422235,10.9958923 C14.0046186,10.6022384 13.8165281,10.1520545 13.4228741,9.99068716 C13.0292202,9.82829206 12.5780085,10.0163826 12.4166412,10.4100366" id="Fill-24" fill="#FFFFFF"></path>
            <path d="M8.29735565,8.71670783 C8.13496055,9.11036179 8.32305108,9.56054569 8.71670505,9.7229408 C9.11138682,9.88430809 9.56054291,9.69724537 9.72293802,9.30256359 C9.88533313,8.90890963 9.69724259,8.45872573 9.30358863,8.29735844 C8.90993467,8.13496333 8.45872294,8.32305386 8.29735565,8.71670783" id="Fill-26" fill="#FFFFFF"></path>
            <path d="M4.17755624,7.02348188 C4.01618895,7.41713584 4.20427948,7.86731975 4.59793345,8.02971485 C4.99158741,8.19108214 5.44177131,8.00401943 5.60416642,7.60933765 C5.76553371,7.21568368 5.57744317,6.76549978 5.18378921,6.60413249 C4.79013525,6.44173738 4.33995134,6.62982792 4.17755624,7.02348188" id="Fill-28" fill="#FFFFFF"></path>
            <path d="M0.0581679473,5.33015315 C-0.103199343,5.72380712 0.0838633757,6.17399102 0.478545155,6.33638613 C0.872199117,6.49775342 1.32238302,6.3106907 1.48477813,5.91600892 C1.64614542,5.52235496 1.45805488,5.07217105 1.06440092,4.90977595 C0.670746959,4.74840866 0.220563054,4.93649919 0.0581679473,5.33015315" id="Fill-30" fill="#FFFFFF"></path>
            <path d="M16.5193788,5.87571849 C16.6828017,6.26834463 17.1350413,6.45437953 17.5276674,6.28992879 C17.9202936,6.12650587 18.1053007,5.67529415 17.9418777,5.28164018 C17.7784548,4.88901404 17.3262153,4.70400696 16.9335891,4.86742988 C16.540963,5.03188062 16.3549281,5.48309234 16.5193788,5.87571849" id="Fill-32" fill="#FFFFFF"></path>
            <path d="M13.4173239,8.00576672 C13.8099501,7.84234379 13.995985,7.39010425 13.8315342,6.99747811 C13.6681113,6.60485196 13.2168996,6.41881706 12.8232456,6.5832678 C12.4306195,6.74669073 12.2445846,7.19893027 12.4090353,7.59155641 C12.5734861,7.98418256 13.0246978,8.16918964 13.4173239,8.00576672 Z" id="Fill-34" fill="#FFFFFF"></path>
            <path d="M8.2987946,9.30688043 C8.46324534,9.69950657 8.91445706,9.88554147 9.30708321,9.72109073 C9.69970935,9.55766781 9.88574425,9.10645608 9.72129351,8.71280212 C9.55787059,8.32017598 9.10665887,8.13414108 8.7130049,8.29859182 C8.32037876,8.46304256 8.13434386,8.91425428 8.2987946,9.30688043" id="Fill-36" fill="#FFFFFF"></path>
            <path d="M4.18855388,11.0223072 C4.35300462,11.4149334 4.80421634,11.6009683 5.19684249,11.4365175 C5.58946863,11.2730946 5.77550354,10.8218829 5.61105279,10.4282289 C5.44762987,10.0356028 4.99641815,9.84956787 4.60276419,10.0140186 C4.21013804,10.1784694 4.02410314,10.6296811 4.18855388,11.0223072" id="Fill-38" fill="#FFFFFF"></path>
            <path d="M0.0783131632,12.7376312 C0.242763905,13.1302574 0.693975626,13.3162923 1.08660177,13.1518415 C1.47922792,12.9884186 1.66526282,12.5372069 1.50081208,12.1435529 C1.33738915,11.7509268 0.88617743,11.5659197 0.492523468,11.7293426 C0.099897323,11.8937934 -0.0861375782,12.3450051 0.0783131632,12.7376312" id="Fill-40" fill="#FFFFFF"></path>
        </g>
    </g>
</svg>