<?xml version="1.0" encoding="UTF-8"?>
<svg width="18px" height="18px" viewBox="0 0 18 18" version="1.1" xmlns="http://www.w3.org/2000/svg" xmlns:xlink="http://www.w3.org/1999/xlink">
    <!-- Generator: Sketch 51.3 (57544) - http://www.bohemiancoding.com/sketch -->
    <title>workflow</title>
    <desc>Created with Sketch.</desc>
    <defs></defs>
    <g id="workflow" stroke="none" stroke-width="1" fill="none" fill-rule="evenodd">
        <g id="Group" transform="translate(6.000000, 0.000000)" fill="#FFFFFF" fill-rule="nonzero">
            <g id="Shape">
                <path d="M11.578125,18 C11.4674378,18 11.3586731,17.956604 11.2776489,17.8742065 L5.58233642,12.0970459 C5.50460814,12.0179443 5.4609375,11.9119263 5.4609375,11.8009644 L5.4609375,6.19903564 C5.4609375,6.08807374 5.50460814,5.98205565 5.58233642,5.90295409 L11.2776489,0.12579345 C11.3979492,0.0032959125 11.5792236,-0.032409675 11.7382507,0.031311 C11.8964539,0.0966796875 12,0.250488281 12,0.421875 L12,17.578125 C12,17.7495117 11.8964539,17.9033203 11.7382507,17.9686889 C11.6863403,17.989563 11.631958,18 11.578125,18 Z M6.3046875,11.6279297 L11.15625,16.5492553 L11.15625,1.45074465 L6.3046875,6.37207031 L6.3046875,11.6279297 Z"></path>
                <path d="M3.0533586,17.8370028 L0.967329545,17.8370028 C0.734419389,17.8370028 0.545454545,17.648038 0.545454545,17.4151278 L0.545454545,13.0909091 L1.38920455,13.0909091 L1.38920455,16.9932528 L2.6314836,16.9932528 L2.6314836,13.0909091 L3.4752336,13.0909091 L3.4752336,17.4151278 C3.4752336,17.648038 3.28626876,17.8370028 3.0533586,17.8370028 Z"></path>
                <path d="M5.8828125,12.2228394 L3,12.2228394 C2.76708984,12.2228394 2.578125,12.0338745 2.578125,11.8009644 L2.578125,6.19903564 C2.578125,5.96612548 2.76708984,5.77716064 3,5.77716064 L5.8828125,5.77716064 C6.11572266,5.77716064 6.3046875,5.96612548 6.3046875,6.19903564 L6.3046875,11.8009644 C6.3046875,12.0338745 6.11572266,12.2228394 5.8828125,12.2228394 Z M3.421875,11.3790894 L5.4609375,11.3790894 L5.4609375,6.62091064 L3.421875,6.62091064 L3.421875,11.3790894 Z"></path>
            </g>
        </g>
        <path d="M8.58205139,6.66268433 L4,6.66268433 C1.89565454,6.66268433 0.88,7.6177691 0.88,9.00117493 C0.88,10.3845808 1.89565454,11.3396655 4,11.3396655 L8.58205139,11.3396655 L8.58205139,6.66268433 Z M4,5.78268433 L9.46205139,5.78268433 L9.46205139,12.2196655 L4,12.2196655 C1.13262939,12.2196655 1.58207702e-16,10.6116172 0,9.00117493 C0,7.39073266 1.13262939,5.78268433 4,5.78268433 Z" id="Rectangle" fill="#FFFFFF" fill-rule="nonzero"></path>
    </g>
</svg>